<svg width="18" height="18" viewBox="0 0 18 18" fill="none" xmlns="http://www.w3.org/2000/svg">
<mask id="path-1-outside-1_112_10611" maskUnits="userSpaceOnUse" x="0" y="0" width="18" height="18" fill="black">
<rect fill="white" width="18" height="18"/>
<path d="M15 10.82C13.78 12.26 10.98 14.36 9 16.14C6.42 14.08 4.56 12.62 2.98 10.82C2.04 9.76 1.5 8.72 1.2 7.74C0.96 6.76 1 5.84 1.16 4.96C1.62 3.04 3.2 1.4 5.46 1.4C7.08 1.4 8.2 2.62 9 3.74C9.8 2.62 10.8 1.4 12.52 1.4C14.78 1.4 16.38 3.04 16.82 4.96C16.98 5.84 17.04 6.76 16.78 7.74C16.5 8.72 15.94 9.76 15 10.82Z"/>
</mask>
<path d="M15 10.82C13.78 12.26 10.98 14.36 9 16.14C6.42 14.08 4.56 12.62 2.98 10.82C2.04 9.76 1.5 8.72 1.2 7.74C0.96 6.76 1 5.84 1.16 4.96C1.62 3.04 3.2 1.4 5.46 1.4C7.08 1.4 8.2 2.62 9 3.74C9.8 2.62 10.8 1.4 12.52 1.4C14.78 1.4 16.38 3.04 16.82 4.96C16.98 5.84 17.04 6.76 16.78 7.74C16.5 8.72 15.94 9.76 15 10.82Z" fill="#F5A2D8"/>
<path d="M15 10.82L14.4015 10.2892L14.3955 10.296L14.3896 10.3029L15 10.82ZM9 16.14L8.50084 16.7652L9.03065 17.1882L9.53484 16.7349L9 16.14ZM2.98 10.82L3.58124 10.2922L3.57855 10.2892L2.98 10.82ZM1.2 7.74L0.422962 7.93029L0.428377 7.9524L0.43504 7.97417L1.2 7.74ZM1.16 4.96L0.382017 4.77361L0.376862 4.79512L0.372904 4.81689L1.16 4.96ZM9 3.74L8.34901 4.20499L9 5.11637L9.65099 4.20499L9 3.74ZM16.82 4.96L17.6071 4.81689L17.6038 4.79901L17.5998 4.7813L16.82 4.96ZM16.78 7.74L17.5492 7.95978L17.5513 7.95248L17.5533 7.94515L16.78 7.74ZM15 10.82L14.3896 10.3029C13.83 10.9634 12.8771 11.8068 11.7693 12.7409C10.6867 13.6537 9.46758 14.6439 8.46516 15.5451L9 16.14L9.53484 16.7349C10.5124 15.8561 11.6833 14.9063 12.8007 13.9641C13.8929 13.0432 14.95 12.1166 15.6104 11.3371L15 10.82ZM9 16.14L9.49916 15.5148C6.90026 13.4397 5.10433 12.0274 3.58123 10.2923L2.98 10.82L2.37877 11.3477C4.01567 13.2126 5.93974 14.7203 8.50084 16.7652L9 16.14ZM2.98 10.82L3.57855 10.2892C2.71349 9.31371 2.23089 8.37452 1.96496 7.50583L1.2 7.74L0.43504 7.97417C0.769113 9.06547 1.36651 10.2063 2.38145 11.3508L2.98 10.82ZM1.2 7.74L1.97704 7.5497C1.77105 6.70858 1.80091 5.90715 1.9471 5.10311L1.16 4.96L0.372904 4.81689C0.199093 5.77285 0.148952 6.81142 0.422962 7.93029L1.2 7.74ZM1.16 4.96L1.93798 5.14639C2.33021 3.50927 3.64372 2.2 5.46 2.2V1.4V0.6C2.75628 0.6 0.90979 2.57073 0.382017 4.77361L1.16 4.96ZM5.46 1.4V2.2C6.64676 2.2 7.55515 3.09359 8.34901 4.20499L9 3.74L9.65099 3.27501C8.84485 2.14641 7.51324 0.6 5.46 0.6V1.4ZM9 3.74L9.65099 4.20499C10.4586 3.07427 11.2443 2.2 12.52 2.2V1.4V0.6C10.3557 0.6 9.14136 2.16573 8.34901 3.27501L9 3.74ZM12.52 1.4V2.2C14.3414 2.2 15.6679 3.51421 16.0402 5.1387L16.82 4.96L17.5998 4.7813C17.0921 2.56579 15.2186 0.6 12.52 0.6V1.4ZM16.82 4.96L16.0329 5.10311C16.1816 5.92085 16.2252 6.71136 16.0068 7.53485L16.78 7.74L17.5533 7.94515C17.8548 6.80864 17.7784 5.75915 17.6071 4.81689L16.82 4.96ZM16.78 7.74L16.0108 7.52022C15.7679 8.37018 15.273 9.30643 14.4015 10.2892L15 10.82L15.5986 11.3508C16.607 10.2136 17.2321 9.06982 17.5492 7.95978L16.78 7.74Z" fill="#343434" mask="url(#path-1-outside-1_112_10611)"/>
</svg>
