<svg width="16" height="18" viewBox="0 0 16 18" fill="none" xmlns="http://www.w3.org/2000/svg">
<path d="M1 1.80024C1 1.35795 1.32298 1 1.72207 1H13.9924C14.3922 1 14.7145 1.35795 14.7145 1.80024V16.2004C14.7145 16.6421 14.3915 17 13.9924 17H13.6598C13.3917 17 13.1661 16.8142 12.9981 16.6043C12.9026 16.48 12.78 16.3789 12.6398 16.3089C12.4995 16.2388 12.3451 16.2015 12.1883 16.1998C11.8557 16.1998 11.5588 16.3657 11.3606 16.627C11.2077 16.8272 10.9958 17 10.7441 17C10.4925 17 10.2813 16.8272 10.1284 16.627C9.9295 16.3664 9.63258 16.2004 9.30069 16.2004C8.9688 16.2004 8.67188 16.3657 8.47302 16.627C8.32079 16.8272 8.1089 17 7.85724 17C7.60558 17 7.39369 16.8272 7.24146 16.627C7.0426 16.3664 6.74568 16.2004 6.41379 16.2004C6.0819 16.2004 5.7843 16.3657 5.58612 16.627C5.43321 16.8272 5.22132 17 4.96966 17C4.718 17 4.50679 16.8272 4.35456 16.627C4.1557 16.3664 3.85878 16.2004 3.52621 16.2004C3.20392 16.2004 2.91454 16.3561 2.71568 16.6043C2.54836 16.8142 2.32276 17 2.05396 17H1.72207C1.32229 17 1 16.6421 1 16.2004V1.80024Z" fill="#F6AA37" stroke="black" stroke-width="0.8" stroke-linejoin="round"/>
<path d="M7.85714 6.48633L6.50901 11.4235H6.23815L4.65687 6.48633M7.85714 6.48633L9.20459 11.4235H9.47614L11.0574 6.48633M3.7428 8.57093H11.9715Z" fill="#F6AA37"/>
<path d="M4.65687 6.48633L6.23815 11.4235H6.50901L7.85714 6.48633L9.20459 11.4235H9.47614L11.0574 6.48633M3.7428 8.57093H11.9715" stroke="black" stroke-width="0.8" stroke-linecap="round" stroke-linejoin="round"/>
</svg>
