<svg width="24" height="20" viewBox="0 0 24 20" fill="none" xmlns="http://www.w3.org/2000/svg">
<path d="M8 1H23V14H8V1Z" fill="#FFD5F0" stroke="#7A7A7A" stroke-width="1.5" stroke-linecap="round" stroke-linejoin="round"/>
<path d="M8 6H4L1 9V14H8V6Z" stroke="#7A7A7A" stroke-width="1.5" stroke-linecap="round" stroke-linejoin="round"/>
<path d="M18.5 19C17.1193 19 16 17.8807 16 16.5C16 15.1193 17.1193 14 18.5 14C19.8807 14 21 15.1193 21 16.5C21 17.8807 19.8807 19 18.5 19Z" stroke="#7A7A7A" stroke-width="1.5" stroke-linecap="round" stroke-linejoin="round"/>
<path d="M5.5 19C4.11929 19 3 17.8807 3 16.5C3 15.1193 4.11929 14 5.5 14C6.88071 14 8 15.1193 8 16.5C8 17.8807 6.88071 19 5.5 19Z" stroke="#7A7A7A" stroke-width="1.5" stroke-linecap="round" stroke-linejoin="round"/>
</svg>
