<svg width="30" height="26" viewBox="0 0 30 26" fill="none" xmlns="http://www.w3.org/2000/svg">
<path d="M23.9048 24L28.6667 8.16663H2L7.39682 24H23.9048Z" fill="#FFD5F0" stroke="#343434" stroke-width="2.2" stroke-linecap="round" stroke-linejoin="round"/>
<mask id="path-2-inside-1_119_361" fill="white">
<path d="M22.9995 9.5C22.9995 8.25244 22.8055 7.0171 22.4286 5.86451C22.0517 4.71191 21.4993 3.66464 20.8028 2.78249C20.1064 1.90033 19.2796 1.20056 18.3696 0.723144C17.4597 0.245725 16.4844 -5.45325e-08 15.4995 0C14.5146 5.45325e-08 13.5393 0.245725 12.6294 0.723145C11.7194 1.20056 10.8926 1.90033 10.1962 2.78249C9.49977 3.66464 8.94733 4.71191 8.57042 5.86451C8.1935 7.0171 7.99951 8.25244 7.99951 9.5L15.4995 9.5H22.9995Z"/>
</mask>
<path d="M22.9995 9.5C22.9995 8.25244 22.8055 7.0171 22.4286 5.86451C22.0517 4.71191 21.4993 3.66464 20.8028 2.78249C20.1064 1.90033 19.2796 1.20056 18.3696 0.723144C17.4597 0.245725 16.4844 -5.45325e-08 15.4995 0C14.5146 5.45325e-08 13.5393 0.245725 12.6294 0.723145C11.7194 1.20056 10.8926 1.90033 10.1962 2.78249C9.49977 3.66464 8.94733 4.71191 8.57042 5.86451C8.1935 7.0171 7.99951 8.25244 7.99951 9.5L15.4995 9.5H22.9995Z" stroke="#343434" stroke-width="4" mask="url(#path-2-inside-1_119_361)"/>
<path d="M8.6665 8.16663L8.6665 13.1666" stroke="#343434" stroke-width="2" stroke-linecap="round" stroke-linejoin="round"/>
<path d="M22 8.16663V13.1666" stroke="#343434" stroke-width="2" stroke-linecap="round" stroke-linejoin="round"/>
</svg>
