<svg width="14" height="15" viewBox="0 0 14 15" fill="none" xmlns="http://www.w3.org/2000/svg">
<path d="M6.79688 5.28906C6.88802 5.78385 6.95964 6.39583 7.01172 7.125C7.07682 7.85417 7.10938 8.58984 7.10938 9.33203C7.10938 10.0221 7.0638 10.6667 6.97266 11.2656C6.89453 11.8516 6.74479 12.3008 6.52344 12.6133V12.5938C6.22396 13.0234 5.83333 13.401 5.35156 13.7266C4.88281 14.0391 4.32943 14.1953 3.69141 14.1953C3.41797 14.1953 3.125 14.1562 2.8125 14.0781C2.5 14 2.19401 13.8763 1.89453 13.707C1.3737 13.3945 1.00911 13.0495 0.800781 12.6719C0.592448 12.2812 0.488281 11.8971 0.488281 11.5195C0.488281 11.3893 0.494792 11.2461 0.507812 11.0898C0.533854 10.9336 0.572917 10.7708 0.625 10.6016C0.768229 10.1458 0.970052 9.80078 1.23047 9.56641C1.50391 9.33203 1.84896 9.13672 2.26562 8.98047C2.48698 8.91536 2.77344 8.88281 3.125 8.88281C3.42448 8.88281 3.73047 8.92188 4.04297 9C4.35547 9.07812 4.62891 9.16927 4.86328 9.27344C4.83724 8.96094 4.80469 8.58984 4.76562 8.16016C4.72656 7.73047 4.68099 7.28776 4.62891 6.83203C4.57682 6.3763 4.51823 5.92057 4.45312 5.46484C4.38802 4.99609 4.32943 4.57292 4.27734 4.19531C4.22526 3.80469 4.17318 3.46615 4.12109 3.17969C4.08203 2.89323 4.04948 2.69792 4.02344 2.59375C3.93229 2.28125 3.88672 2.0013 3.88672 1.75391C3.88672 1.33724 4.01693 1.02474 4.27734 0.816406C4.53776 0.595052 4.98047 0.490885 5.60547 0.503906C5.63151 0.503906 5.85286 0.510417 6.26953 0.523438C6.6862 0.536458 7.18099 0.55599 7.75391 0.582031C8.32682 0.608073 8.91276 0.634115 9.51172 0.660156C10.1107 0.686198 10.6055 0.705729 10.9961 0.71875C11.3607 0.744792 11.6602 0.777344 11.8945 0.816406C12.1289 0.842448 12.3177 0.907552 12.4609 1.01172C12.6042 1.10286 12.7214 1.23958 12.8125 1.42188C12.9036 1.59115 12.9948 1.81901 13.0859 2.10547C13.151 2.37891 13.2227 2.75651 13.3008 3.23828C13.3789 3.70703 13.4505 4.23438 13.5156 4.82031C13.5807 5.40625 13.6328 6.02474 13.6719 6.67578C13.7109 7.3138 13.7305 7.93229 13.7305 8.53125C13.7305 8.94792 13.7174 9.36458 13.6914 9.78125C13.6654 10.1849 13.6263 10.569 13.5742 10.9336C13.5221 11.2852 13.4505 11.6107 13.3594 11.9102C13.2682 12.1966 13.1641 12.4375 13.0469 12.6328C12.7734 13.0495 12.3698 13.401 11.8359 13.6875C11.3151 13.9609 10.7617 14.0977 10.1758 14.0977C9.88932 14.0977 9.60938 14.0651 9.33594 14C9.0625 13.9349 8.80208 13.8307 8.55469 13.6875H8.57422C8.04036 13.362 7.66276 13.0104 7.44141 12.6328C7.23307 12.2552 7.12891 11.8776 7.12891 11.5C7.12891 11.2656 7.18099 10.9792 7.28516 10.6406C7.42839 10.1849 7.66927 9.83333 8.00781 9.58594C8.34635 9.32552 8.69141 9.14323 9.04297 9.03906H9.02344C9.25781 8.94792 9.55078 8.90234 9.90234 8.90234C10.2148 8.90234 10.5078 8.94792 10.7812 9.03906C11.0677 9.11719 11.3216 9.22135 11.543 9.35156V8.90234C11.543 8.64193 11.5365 8.34896 11.5234 8.02344C11.5104 7.69792 11.4909 7.37891 11.4648 7.06641C11.4518 6.75391 11.4323 6.46094 11.4062 6.1875C11.3932 5.91406 11.3737 5.6862 11.3477 5.50391L6.79688 5.28906ZM6.23047 2.45703C6.26953 2.6263 6.30859 2.78906 6.34766 2.94531C6.39974 3.08854 6.4388 3.2513 6.46484 3.43359C6.86849 3.44661 7.25911 3.46615 7.63672 3.49219C8.01432 3.50521 8.38542 3.52474 8.75 3.55078C9.11458 3.5638 9.48568 3.58333 9.86328 3.60938C10.2409 3.63542 10.638 3.65495 11.0547 3.66797C11.0286 3.4987 10.9961 3.33594 10.957 3.17969C10.931 3.01042 10.9049 2.83464 10.8789 2.65234L6.23047 2.45703Z" fill="#E9535F"/>
</svg>
