<svg width="448" height="170" viewBox="0 0 448 170" fill="none" xmlns="http://www.w3.org/2000/svg">
<mask id="path-1-outside-1_66_1102" maskUnits="userSpaceOnUse" x="3" y="33" width="442" height="131" fill="black">
<rect fill="white" x="3" y="33" width="442" height="131"/>
<path d="M63.644 134C60.6973 134 58.2273 133.263 56.234 131.79C54.3273 130.23 52.984 128.15 52.204 125.55C51.5107 123.123 51.0773 120.48 50.904 117.62C50.8173 114.76 50.774 110.73 50.774 105.53C50.774 100.677 50.5573 97.08 50.124 94.74C49.7773 92.4 48.8673 91.23 47.394 91.23C45.6607 91.23 44.4473 92.01 43.754 93.57C43.0607 95.0433 42.714 97.1667 42.714 99.94C42.714 102.453 43.0607 106.397 43.754 111.77C43.8407 112.81 44.014 114.457 44.274 116.71C44.534 118.963 44.664 120.827 44.664 122.3C44.664 126.46 43.7107 129.407 41.804 131.14C39.984 132.873 37.2973 133.74 33.744 133.74C29.4973 133.74 25.814 131.443 22.694 126.85C19.574 122.257 17.234 116.537 15.674 109.69C14.114 102.757 13.334 95.9533 13.334 89.28C13.334 81.3067 14.4607 73.8967 16.714 67.05C19.054 60.2033 22.5207 54.7 27.114 50.54C31.794 46.38 37.4273 44.3 44.014 44.3C49.5607 44.3 53.9807 46.0333 57.274 49.5C60.5673 52.88 62.7773 56.9967 63.904 61.85C64.8573 57.0833 66.9807 52.9667 70.274 49.5C73.654 46.0333 78.074 44.3 83.534 44.3C90.034 44.3 95.5807 46.3367 100.174 50.41C104.854 54.3967 108.407 59.9867 110.834 67.18C113.347 74.3733 114.604 82.6933 114.604 92.14C114.604 98.2933 113.737 104.663 112.004 111.25C110.271 117.75 107.844 123.167 104.724 127.5C101.604 131.833 98.0507 134 94.064 134C90.424 134 87.6507 133.09 85.744 131.27C83.8373 129.45 82.884 126.46 82.884 122.3C82.884 120.393 83.2307 116.84 83.924 111.64C84.6173 106.093 84.964 102.107 84.964 99.68C84.964 94.0467 83.4473 91.23 80.414 91.23C78.854 91.23 77.8573 92.4867 77.424 95C77.0773 97.5133 76.8607 101.587 76.774 107.22C76.774 111.467 76.6873 115.02 76.514 117.88C76.3407 120.653 75.9507 123.21 75.344 125.55C74.6507 128.063 73.264 130.1 71.184 131.66C69.1907 133.22 66.6773 134 63.644 134ZM151.208 134C144.795 134 139.118 132.743 134.178 130.23C129.238 127.717 125.381 124.207 122.608 119.7C119.921 115.107 118.578 109.95 118.578 104.23C118.578 98.5967 119.921 93.3967 122.608 88.63C125.381 83.8633 129.195 80.05 134.048 77.19C138.901 74.33 144.405 72.9 150.558 72.9C156.105 72.9 161.001 74.0267 165.248 76.28C169.495 78.5333 172.745 81.5233 174.998 85.25C177.251 88.89 178.378 92.7033 178.378 96.69C178.378 103.19 175.908 107.957 170.968 110.99C166.115 113.937 160.308 115.41 153.548 115.41C149.041 115.41 145.228 114.847 142.108 113.72C144.708 117.967 148.998 120.09 154.978 120.09C157.405 120.09 160.005 119.787 162.778 119.18C163.818 118.92 164.815 118.79 165.768 118.79C167.675 118.79 169.191 119.267 170.318 120.22C171.531 121.173 172.138 122.473 172.138 124.12C172.138 126.807 170.491 129.147 167.198 131.14C163.905 133.047 158.575 134 151.208 134ZM142.498 97.86C143.278 99.0733 144.318 99.9833 145.618 100.59C147.005 101.11 148.521 101.37 150.168 101.37C152.075 101.37 153.721 100.937 155.108 100.07C156.581 99.2033 157.318 98.0767 157.318 96.69C157.318 95.13 156.668 93.7867 155.368 92.66C154.155 91.5333 152.378 90.97 150.038 90.97C147.698 90.97 145.835 91.7067 144.448 93.18C143.148 94.5667 142.498 96.1267 142.498 97.86ZM200.058 133.74C195.724 133.74 192.474 132.137 190.308 128.93C188.141 125.723 186.668 121 185.888 114.76C185.194 108.433 184.848 99.6367 184.848 88.37C184.848 77.5367 185.108 69.0867 185.628 63.02C186.234 56.9533 187.621 52.1 189.788 48.46C192.041 44.82 195.508 43 200.188 43C204.868 43 208.291 44.82 210.458 48.46C212.711 52.1 214.098 56.9533 214.618 63.02C215.224 69.0867 215.528 77.5367 215.528 88.37C215.528 99.03 215.051 107.653 214.098 114.24C213.231 120.74 211.671 125.637 209.418 128.93C207.164 132.137 204.044 133.74 200.058 133.74ZM252.006 134.13C245.766 134.217 240.176 132.917 235.236 130.23C230.383 127.543 226.569 123.86 223.796 119.18C221.109 114.413 219.679 109.127 219.506 103.32C219.419 97.5133 220.763 92.3133 223.536 87.72C226.309 83.1267 230.166 79.4867 235.106 76.8C240.133 74.1133 245.766 72.77 252.006 72.77C258.073 72.77 263.533 74.07 268.386 76.67C273.326 79.27 277.226 82.91 280.086 87.59C282.946 92.27 284.463 97.5133 284.636 103.32C284.723 108.953 283.379 114.11 280.606 118.79C277.833 123.383 273.933 127.067 268.906 129.84C263.966 132.613 258.333 134.043 252.006 134.13ZM252.396 115.15C254.736 115.15 256.773 114.24 258.506 112.42C260.239 110.6 261.106 108.477 261.106 106.05C261.106 103.623 260.239 101.543 258.506 99.81C256.773 97.99 254.736 97.08 252.396 97.08C250.056 97.08 248.019 97.99 246.286 99.81C244.553 101.543 243.686 103.623 243.686 106.05C243.686 108.477 244.553 110.6 246.286 112.42C248.019 114.24 250.056 115.15 252.396 115.15ZM390.767 153.24C386.087 153.24 382.187 152.33 379.067 150.51C375.947 148.69 374.387 146.003 374.387 142.45C374.387 139.59 375.73 137.337 378.417 135.69C381.103 134.043 384.267 133.307 387.907 133.48C391.72 133.653 394.667 133.48 396.747 132.96C398.913 132.44 400.56 131.487 401.687 130.1C393.713 130.1 387.343 128.973 382.577 126.72C377.81 124.38 374.343 120.783 372.177 115.93C370.097 110.99 369.057 104.49 369.057 96.43C369.057 89.4967 370.097 83.9067 372.177 79.66C374.343 75.3267 377.723 73.16 382.317 73.16C386.39 73.16 389.38 74.33 391.287 76.67C393.28 78.9233 394.277 81.87 394.277 85.51L394.147 91.23C394.06 92.3567 394.017 94.0033 394.017 96.17C394.017 100.33 394.537 103.493 395.577 105.66C396.617 107.74 398.697 108.78 401.817 108.78C404.937 108.78 407.017 107.74 408.057 105.66C409.097 103.493 409.617 100.373 409.617 96.3C409.617 94.1333 409.573 92.4867 409.487 91.36L409.357 85.77C409.357 81.87 410.31 78.7933 412.217 76.54C414.21 74.2867 417.243 73.16 421.317 73.16C425.91 73.16 429.29 75.3267 431.457 79.66C433.623 83.9933 434.707 89.5833 434.707 96.43C434.707 106.657 433.233 116.06 430.287 124.64C427.427 133.133 422.703 140.023 416.117 145.31C409.617 150.597 401.167 153.24 390.767 153.24Z"/>
</mask>
<path d="M63.644 134C60.6973 134 58.2273 133.263 56.234 131.79C54.3273 130.23 52.984 128.15 52.204 125.55C51.5107 123.123 51.0773 120.48 50.904 117.62C50.8173 114.76 50.774 110.73 50.774 105.53C50.774 100.677 50.5573 97.08 50.124 94.74C49.7773 92.4 48.8673 91.23 47.394 91.23C45.6607 91.23 44.4473 92.01 43.754 93.57C43.0607 95.0433 42.714 97.1667 42.714 99.94C42.714 102.453 43.0607 106.397 43.754 111.77C43.8407 112.81 44.014 114.457 44.274 116.71C44.534 118.963 44.664 120.827 44.664 122.3C44.664 126.46 43.7107 129.407 41.804 131.14C39.984 132.873 37.2973 133.74 33.744 133.74C29.4973 133.74 25.814 131.443 22.694 126.85C19.574 122.257 17.234 116.537 15.674 109.69C14.114 102.757 13.334 95.9533 13.334 89.28C13.334 81.3067 14.4607 73.8967 16.714 67.05C19.054 60.2033 22.5207 54.7 27.114 50.54C31.794 46.38 37.4273 44.3 44.014 44.3C49.5607 44.3 53.9807 46.0333 57.274 49.5C60.5673 52.88 62.7773 56.9967 63.904 61.85C64.8573 57.0833 66.9807 52.9667 70.274 49.5C73.654 46.0333 78.074 44.3 83.534 44.3C90.034 44.3 95.5807 46.3367 100.174 50.41C104.854 54.3967 108.407 59.9867 110.834 67.18C113.347 74.3733 114.604 82.6933 114.604 92.14C114.604 98.2933 113.737 104.663 112.004 111.25C110.271 117.75 107.844 123.167 104.724 127.5C101.604 131.833 98.0507 134 94.064 134C90.424 134 87.6507 133.09 85.744 131.27C83.8373 129.45 82.884 126.46 82.884 122.3C82.884 120.393 83.2307 116.84 83.924 111.64C84.6173 106.093 84.964 102.107 84.964 99.68C84.964 94.0467 83.4473 91.23 80.414 91.23C78.854 91.23 77.8573 92.4867 77.424 95C77.0773 97.5133 76.8607 101.587 76.774 107.22C76.774 111.467 76.6873 115.02 76.514 117.88C76.3407 120.653 75.9507 123.21 75.344 125.55C74.6507 128.063 73.264 130.1 71.184 131.66C69.1907 133.22 66.6773 134 63.644 134ZM151.208 134C144.795 134 139.118 132.743 134.178 130.23C129.238 127.717 125.381 124.207 122.608 119.7C119.921 115.107 118.578 109.95 118.578 104.23C118.578 98.5967 119.921 93.3967 122.608 88.63C125.381 83.8633 129.195 80.05 134.048 77.19C138.901 74.33 144.405 72.9 150.558 72.9C156.105 72.9 161.001 74.0267 165.248 76.28C169.495 78.5333 172.745 81.5233 174.998 85.25C177.251 88.89 178.378 92.7033 178.378 96.69C178.378 103.19 175.908 107.957 170.968 110.99C166.115 113.937 160.308 115.41 153.548 115.41C149.041 115.41 145.228 114.847 142.108 113.72C144.708 117.967 148.998 120.09 154.978 120.09C157.405 120.09 160.005 119.787 162.778 119.18C163.818 118.92 164.815 118.79 165.768 118.79C167.675 118.79 169.191 119.267 170.318 120.22C171.531 121.173 172.138 122.473 172.138 124.12C172.138 126.807 170.491 129.147 167.198 131.14C163.905 133.047 158.575 134 151.208 134ZM142.498 97.86C143.278 99.0733 144.318 99.9833 145.618 100.59C147.005 101.11 148.521 101.37 150.168 101.37C152.075 101.37 153.721 100.937 155.108 100.07C156.581 99.2033 157.318 98.0767 157.318 96.69C157.318 95.13 156.668 93.7867 155.368 92.66C154.155 91.5333 152.378 90.97 150.038 90.97C147.698 90.97 145.835 91.7067 144.448 93.18C143.148 94.5667 142.498 96.1267 142.498 97.86ZM200.058 133.74C195.724 133.74 192.474 132.137 190.308 128.93C188.141 125.723 186.668 121 185.888 114.76C185.194 108.433 184.848 99.6367 184.848 88.37C184.848 77.5367 185.108 69.0867 185.628 63.02C186.234 56.9533 187.621 52.1 189.788 48.46C192.041 44.82 195.508 43 200.188 43C204.868 43 208.291 44.82 210.458 48.46C212.711 52.1 214.098 56.9533 214.618 63.02C215.224 69.0867 215.528 77.5367 215.528 88.37C215.528 99.03 215.051 107.653 214.098 114.24C213.231 120.74 211.671 125.637 209.418 128.93C207.164 132.137 204.044 133.74 200.058 133.74ZM252.006 134.13C245.766 134.217 240.176 132.917 235.236 130.23C230.383 127.543 226.569 123.86 223.796 119.18C221.109 114.413 219.679 109.127 219.506 103.32C219.419 97.5133 220.763 92.3133 223.536 87.72C226.309 83.1267 230.166 79.4867 235.106 76.8C240.133 74.1133 245.766 72.77 252.006 72.77C258.073 72.77 263.533 74.07 268.386 76.67C273.326 79.27 277.226 82.91 280.086 87.59C282.946 92.27 284.463 97.5133 284.636 103.32C284.723 108.953 283.379 114.11 280.606 118.79C277.833 123.383 273.933 127.067 268.906 129.84C263.966 132.613 258.333 134.043 252.006 134.13ZM252.396 115.15C254.736 115.15 256.773 114.24 258.506 112.42C260.239 110.6 261.106 108.477 261.106 106.05C261.106 103.623 260.239 101.543 258.506 99.81C256.773 97.99 254.736 97.08 252.396 97.08C250.056 97.08 248.019 97.99 246.286 99.81C244.553 101.543 243.686 103.623 243.686 106.05C243.686 108.477 244.553 110.6 246.286 112.42C248.019 114.24 250.056 115.15 252.396 115.15ZM390.767 153.24C386.087 153.24 382.187 152.33 379.067 150.51C375.947 148.69 374.387 146.003 374.387 142.45C374.387 139.59 375.73 137.337 378.417 135.69C381.103 134.043 384.267 133.307 387.907 133.48C391.72 133.653 394.667 133.48 396.747 132.96C398.913 132.44 400.56 131.487 401.687 130.1C393.713 130.1 387.343 128.973 382.577 126.72C377.81 124.38 374.343 120.783 372.177 115.93C370.097 110.99 369.057 104.49 369.057 96.43C369.057 89.4967 370.097 83.9067 372.177 79.66C374.343 75.3267 377.723 73.16 382.317 73.16C386.39 73.16 389.38 74.33 391.287 76.67C393.28 78.9233 394.277 81.87 394.277 85.51L394.147 91.23C394.06 92.3567 394.017 94.0033 394.017 96.17C394.017 100.33 394.537 103.493 395.577 105.66C396.617 107.74 398.697 108.78 401.817 108.78C404.937 108.78 407.017 107.74 408.057 105.66C409.097 103.493 409.617 100.373 409.617 96.3C409.617 94.1333 409.573 92.4867 409.487 91.36L409.357 85.77C409.357 81.87 410.31 78.7933 412.217 76.54C414.21 74.2867 417.243 73.16 421.317 73.16C425.91 73.16 429.29 75.3267 431.457 79.66C433.623 83.9933 434.707 89.5833 434.707 96.43C434.707 106.657 433.233 116.06 430.287 124.64C427.427 133.133 422.703 140.023 416.117 145.31C409.617 150.597 401.167 153.24 390.767 153.24Z" fill="white"/>
<path d="M56.234 131.79L49.9016 139.53L50.0921 139.685L50.2901 139.832L56.234 131.79ZM52.204 125.55L42.5887 128.297L42.6068 128.36L42.6257 128.423L52.204 125.55ZM50.904 117.62L40.9086 117.923L40.9132 118.074L40.9223 118.225L50.904 117.62ZM50.124 94.74L40.232 96.2055L40.2584 96.3837L40.2912 96.5609L50.124 94.74ZM43.754 93.57L52.8022 97.828L52.8482 97.7302L52.8921 97.6314L43.754 93.57ZM43.754 111.77L53.7194 110.94L53.7007 110.714L53.6718 110.49L43.754 111.77ZM44.274 116.71L34.3399 117.856L34.3399 117.856L44.274 116.71ZM41.804 131.14L35.0773 123.741L34.9914 123.819L34.9074 123.899L41.804 131.14ZM22.694 126.85L30.9662 121.231L30.9662 121.231L22.694 126.85ZM15.674 109.69L5.91789 111.885L5.92086 111.898L5.92387 111.912L15.674 109.69ZM16.714 67.05L7.25138 63.8159L7.23298 63.8698L7.2152 63.9238L16.714 67.05ZM27.114 50.54L20.4703 43.0659L20.4356 43.0968L20.4012 43.128L27.114 50.54ZM57.274 49.5L50.024 56.3875L50.0675 56.4333L50.1117 56.4786L57.274 49.5ZM63.904 61.85L54.163 64.1113L73.7098 63.8112L63.904 61.85ZM70.274 49.5L63.114 42.519L63.0687 42.5655L63.024 42.6125L70.274 49.5ZM100.174 50.41L93.5391 57.8919L93.6136 57.9579L93.6893 58.0224L100.174 50.41ZM110.834 67.18L101.359 70.3765L101.376 70.4276L101.394 70.4784L110.834 67.18ZM112.004 111.25L121.666 113.827L121.671 113.811L121.675 113.795L112.004 111.25ZM83.924 111.64L93.8363 112.962L93.8417 112.921L93.8468 112.88L83.924 111.64ZM77.424 95L67.5694 93.3009L67.5408 93.4668L67.5178 93.6336L77.424 95ZM76.774 107.22L66.7752 107.066L66.774 107.143V107.22H76.774ZM76.514 117.88L86.4945 118.504L86.4951 118.494L86.4957 118.485L76.514 117.88ZM75.344 125.55L84.9839 128.209L85.0045 128.135L85.024 128.06L75.344 125.55ZM71.184 131.66L65.184 123.66L65.1018 123.722L65.0209 123.785L71.184 131.66ZM63.644 134V124C63.0027 124 62.6253 123.92 62.4395 123.865C62.2699 123.814 62.2061 123.769 62.1779 123.748L56.234 131.79L50.2901 139.832C54.311 142.804 58.9735 144 63.644 144V134ZM56.234 131.79L62.5664 124.05C62.3585 123.88 62.0503 123.57 61.7822 122.677L52.204 125.55L42.6257 128.423C43.9177 132.73 46.2961 136.58 49.9016 139.53L56.234 131.79ZM52.204 125.55L61.8192 122.803C61.3502 121.161 61.0208 119.245 60.8857 117.015L50.904 117.62L40.9223 118.225C41.1338 121.715 41.6711 125.085 42.5887 128.297L52.204 125.55ZM50.904 117.62L60.8994 117.317C60.8173 114.608 60.774 110.696 60.774 105.53H50.774H40.774C40.774 110.764 40.8173 114.912 40.9086 117.923L50.904 117.62ZM50.774 105.53H60.774C60.774 100.558 60.5648 96.2022 59.9568 92.9191L50.124 94.74L40.2912 96.5609C40.5498 97.9578 40.774 100.795 40.774 105.53H50.774ZM50.124 94.74L60.016 93.2745C59.7258 91.3158 59.0389 88.4931 57.075 85.9681C54.7389 82.9645 51.2384 81.23 47.394 81.23V91.23V101.23C46.4043 101.23 45.2048 101.024 43.9866 100.426C42.7703 99.8289 41.8827 99.0116 41.288 98.2469C40.2341 96.8919 40.1755 95.8242 40.232 96.2055L50.124 94.74ZM47.394 91.23V81.23C45.0007 81.23 42.296 81.7835 39.7764 83.4032C37.2466 85.0295 35.607 87.2786 34.6159 89.5086L43.754 93.57L52.8921 97.6314C52.5943 98.3014 51.908 99.3805 50.5916 100.227C49.2853 101.067 48.054 101.23 47.394 101.23V91.23ZM43.754 93.57L34.7058 89.312C33.0918 92.7417 32.714 96.5908 32.714 99.94H42.714H52.714C52.714 98.9475 52.7776 98.2811 52.8433 97.8788C52.912 97.4582 52.954 97.5053 52.8022 97.828L43.754 93.57ZM42.714 99.94H32.714C32.714 103.138 33.1357 107.621 33.8362 113.05L43.754 111.77L53.6718 110.49C52.9856 105.173 52.714 101.769 52.714 99.94H42.714ZM43.754 111.77L33.7885 112.6C33.8893 113.809 34.0784 115.59 34.3399 117.856L44.274 116.71L54.2081 115.564C53.9496 113.323 53.792 111.811 53.7194 110.94L43.754 111.77ZM44.274 116.71L34.3399 117.856C34.5767 119.908 34.664 121.356 34.664 122.3H44.664H54.664C54.664 120.298 54.4913 118.018 54.2081 115.564L44.274 116.71ZM44.664 122.3H34.664C34.664 123.669 34.5005 124.348 34.4345 124.552C34.3862 124.701 34.503 124.263 35.0773 123.741L41.804 131.14L48.5307 138.539C53.5069 134.016 54.664 127.593 54.664 122.3H44.664ZM41.804 131.14L34.9074 123.899C35.2131 123.607 35.4444 123.544 35.354 123.573C35.2207 123.616 34.7355 123.74 33.744 123.74V133.74V143.74C38.7986 143.74 44.3706 142.505 48.7005 138.381L41.804 131.14ZM33.744 133.74V123.74C33.5345 123.74 33.3789 123.714 33.0875 123.532C32.7095 123.296 31.9534 122.685 30.9662 121.231L22.694 126.85L14.4218 132.469C18.7666 138.865 25.1927 143.74 33.744 143.74V133.74ZM22.694 126.85L30.9662 121.231C28.7042 117.901 26.7776 113.409 25.4241 107.468L15.674 109.69L5.92387 111.912C7.69036 119.664 10.4438 126.612 14.4218 132.469L22.694 126.85ZM15.674 109.69L25.4301 107.495C24.0217 101.236 23.334 95.1687 23.334 89.28H13.334H3.33398C3.33398 96.7379 4.20624 104.278 5.91789 111.885L15.674 109.69ZM13.334 89.28H23.334C23.334 82.2568 24.3247 75.9129 26.2128 70.1762L16.714 67.05L7.2152 63.9238C4.59658 71.8804 3.33398 80.3565 3.33398 89.28H13.334ZM16.714 67.05L26.1766 70.284C28.061 64.7703 30.685 60.7974 33.8268 57.952L27.114 50.54L20.4012 43.128C14.3563 48.6026 10.0469 55.6363 7.25138 63.8159L16.714 67.05ZM27.114 50.54L33.7576 58.0141C36.5059 55.5712 39.7375 54.3 44.014 54.3V44.3V34.3C35.1171 34.3 27.0821 37.1888 20.4703 43.0659L27.114 50.54ZM44.014 44.3V54.3C47.2978 54.3 48.9245 55.2301 50.024 56.3875L57.274 49.5L64.524 42.6125C59.0368 36.8365 51.8235 34.3 44.014 34.3V44.3ZM57.274 49.5L50.1117 56.4786C52.0588 58.477 53.4252 60.9328 54.163 64.1113L63.904 61.85L73.645 59.5887C72.1295 53.0605 69.0758 47.283 64.4363 42.5213L57.274 49.5ZM63.904 61.85L73.7098 63.8112C74.2996 60.8623 75.553 58.4622 77.524 56.3875L70.274 49.5L63.024 42.6125C58.4083 47.4711 55.4151 53.3043 54.0982 59.8888L63.904 61.85ZM70.274 49.5L77.434 56.481C78.684 55.1989 80.393 54.3 83.534 54.3V44.3V34.3C75.755 34.3 68.624 36.8677 63.114 42.519L70.274 49.5ZM83.534 44.3V54.3C87.7456 54.3 90.8891 55.5419 93.5391 57.8919L100.174 50.41L106.809 42.9281C100.272 37.1315 92.3224 34.3 83.534 34.3V44.3ZM100.174 50.41L93.6893 58.0224C96.7011 60.588 99.3754 64.4978 101.359 70.3765L110.834 67.18L120.309 63.9835C117.439 55.4756 113.007 48.2054 106.659 42.7976L100.174 50.41ZM110.834 67.18L101.394 70.4784C103.46 76.3921 104.604 83.5577 104.604 92.14H114.604H124.604C124.604 81.829 123.235 72.3546 120.274 63.8816L110.834 67.18ZM114.604 92.14H104.604C104.604 97.3484 103.871 102.862 102.333 108.705L112.004 111.25L121.675 113.795C123.604 106.465 124.604 99.2382 124.604 92.14H114.604ZM112.004 111.25L102.342 108.673C100.843 114.292 98.8612 118.528 96.6086 121.657L104.724 127.5L112.839 133.343C116.827 127.805 119.698 121.208 121.666 113.827L112.004 111.25ZM104.724 127.5L96.6086 121.657C95.6172 123.034 94.8765 123.615 94.5129 123.837C94.2323 124.008 94.1379 124 94.064 124V134V144C102.297 144 108.536 139.32 112.839 133.343L104.724 127.5ZM94.064 134V124C93.0527 124 92.539 123.871 92.3717 123.816C92.247 123.775 92.4134 123.812 92.6487 124.036L85.744 131.27L78.8392 138.504C83.2177 142.683 88.8446 144 94.064 144V134ZM85.744 131.27L92.6487 124.036C93.1188 124.485 93.191 124.827 93.1264 124.625C93.0459 124.372 92.884 123.663 92.884 122.3H82.884H72.884C72.884 127.652 74.0657 133.947 78.8392 138.504L85.744 131.27ZM82.884 122.3H92.884C92.884 121.153 93.1339 118.23 93.8363 112.962L83.924 111.64L74.0117 110.318C73.3274 115.45 72.884 119.634 72.884 122.3H82.884ZM83.924 111.64L93.8468 112.88C94.5428 107.312 94.964 102.785 94.964 99.68H84.964H74.964C74.964 101.429 74.6918 104.875 74.0012 110.4L83.924 111.64ZM84.964 99.68H94.964C94.964 96.2928 94.5638 92.1906 92.6312 88.6015C91.5843 86.6572 89.9934 84.6949 87.6682 83.2555C85.3148 81.7986 82.7771 81.23 80.414 81.23V91.23V101.23C79.5675 101.23 78.3569 101.013 77.1411 100.261C75.9533 99.5255 75.3104 98.6194 75.0218 98.0835C74.7619 97.6008 74.7744 97.4017 74.8369 97.7498C74.8953 98.0752 74.964 98.6922 74.964 99.68H84.964ZM80.414 91.23V81.23C76.4827 81.23 72.9946 83.0168 70.6615 85.9586C68.6826 88.4536 67.9194 91.2708 67.5694 93.3009L77.424 95L87.2786 96.6991C87.3619 96.2159 87.3137 97.148 86.3315 98.3864C85.7752 99.0878 84.9322 99.8643 83.7608 100.44C82.581 101.02 81.4056 101.23 80.414 101.23V91.23ZM77.424 95L67.5178 93.6336C67.0815 96.7964 66.8624 101.394 66.7752 107.066L76.774 107.22L86.7728 107.374C86.8589 101.779 87.0731 98.2302 87.3302 96.3664L77.424 95ZM76.774 107.22H66.774C66.774 111.351 66.6891 114.687 66.5323 117.275L76.514 117.88L86.4957 118.485C86.6855 115.353 86.774 111.582 86.774 107.22H76.774ZM76.514 117.88L66.5335 117.256C66.3942 119.485 66.0889 121.401 65.664 123.04L75.344 125.55L85.024 128.06C85.8124 125.019 86.2871 121.822 86.4945 118.504L76.514 117.88ZM75.344 125.55L65.7041 122.891C65.5977 123.276 65.4876 123.432 65.184 123.66L71.184 131.66L77.184 139.66C81.0403 136.768 83.7036 132.85 84.9839 128.209L75.344 125.55ZM71.184 131.66L65.0209 123.785C65.0178 123.787 64.9841 123.82 64.84 123.864C64.6767 123.915 64.3058 124 63.644 124V134V144C68.453 144 73.2646 142.73 77.3471 139.535L71.184 131.66ZM134.178 130.23L138.713 121.317L138.713 121.317L134.178 130.23ZM122.608 119.7L113.976 124.749L114.033 124.846L114.092 124.941L122.608 119.7ZM122.608 88.63L113.965 83.6011L113.93 83.6602L113.897 83.7199L122.608 88.63ZM134.048 77.19L139.125 85.8054L139.125 85.8054L134.048 77.19ZM165.248 76.28L169.935 67.4465L169.935 67.4465L165.248 76.28ZM174.998 85.25L166.441 90.4242L166.468 90.469L166.495 90.5135L174.998 85.25ZM170.968 110.99L176.158 119.538L176.179 119.525L176.201 119.512L170.968 110.99ZM142.108 113.72L145.505 104.314L118.698 94.6341L133.58 118.942L142.108 113.72ZM162.778 119.18L164.915 128.949L165.06 128.917L165.203 128.881L162.778 119.18ZM170.318 120.22L163.859 127.854L163.997 127.971L164.14 128.083L170.318 120.22ZM167.198 131.14L172.208 139.794L172.293 139.745L172.376 139.695L167.198 131.14ZM142.498 97.86H132.498V100.797L134.086 103.268L142.498 97.86ZM145.618 100.59L141.389 109.652L141.742 109.817L142.107 109.953L145.618 100.59ZM155.108 100.07L150.038 91.4507L149.922 91.5188L149.808 91.59L155.108 100.07ZM155.368 92.66L148.564 99.9879L148.689 100.105L148.819 100.217L155.368 92.66ZM144.448 93.18L137.166 86.3264L137.159 86.3335L137.153 86.3406L144.448 93.18ZM151.208 134V124C146.123 124 142.042 123.011 138.713 121.317L134.178 130.23L129.644 139.143C136.194 142.475 143.467 144 151.208 144V134ZM134.178 130.23L138.713 121.317C135.331 119.597 132.887 117.323 131.125 114.459L122.608 119.7L114.092 124.941C117.876 131.091 123.145 135.837 129.644 139.143L134.178 130.23ZM122.608 119.7L131.24 114.651C129.516 111.704 128.578 108.313 128.578 104.23H118.578H108.578C108.578 111.587 110.327 118.509 113.976 124.749L122.608 119.7ZM118.578 104.23H128.578C128.578 100.264 129.503 96.7626 131.32 93.5401L122.608 88.63L113.897 83.7199C110.34 90.0307 108.578 96.9294 108.578 104.23H118.578ZM122.608 88.63L131.252 93.6589C133.144 90.4066 135.715 87.8148 139.125 85.8054L134.048 77.19L128.971 68.5746C122.675 72.2852 117.619 77.3201 113.965 83.6011L122.608 88.63ZM134.048 77.19L139.125 85.8054C142.3 83.9345 146.02 82.9 150.558 82.9V72.9V62.9C142.789 62.9 135.503 64.7255 128.971 68.5746L134.048 77.19ZM150.558 72.9V82.9C154.723 82.9 157.966 83.7365 160.561 85.1135L165.248 76.28L169.935 67.4465C164.037 64.3169 157.486 62.9 150.558 62.9V72.9ZM165.248 76.28L160.561 85.1135C163.381 86.61 165.218 88.4023 166.441 90.4242L174.998 85.25L183.555 80.0758C180.271 74.6444 175.608 70.4567 169.935 67.4465L165.248 76.28ZM174.998 85.25L166.495 90.5135C167.845 92.6939 168.378 94.7008 168.378 96.69H178.378H188.378C188.378 90.7058 186.658 85.0861 183.501 79.9865L174.998 85.25ZM178.378 96.69H168.378C168.378 100.216 167.309 101.502 165.735 102.468L170.968 110.99L176.201 119.512C184.507 114.411 188.378 106.164 188.378 96.69H178.378ZM170.968 110.99L165.778 102.442C162.765 104.272 158.83 105.41 153.548 105.41V115.41V125.41C161.787 125.41 169.465 123.602 176.158 119.538L170.968 110.99ZM153.548 115.41V105.41C149.812 105.41 147.222 104.935 145.505 104.314L142.108 113.72L138.712 123.126C143.234 124.759 148.271 125.41 153.548 125.41V115.41ZM142.108 113.72L133.58 118.942C138.386 126.792 146.334 130.09 154.978 130.09V120.09V110.09C151.662 110.09 151.03 109.141 150.637 108.498L142.108 113.72ZM154.978 120.09V130.09C158.232 130.09 161.555 129.684 164.915 128.949L162.778 119.18L160.641 109.411C158.455 109.889 156.577 110.09 154.978 110.09V120.09ZM162.778 119.18L165.203 128.881C165.547 128.796 165.726 128.79 165.768 128.79V118.79V108.79C163.903 108.79 162.089 109.044 160.353 109.479L162.778 119.18ZM165.768 118.79V128.79C165.901 128.79 165.72 128.808 165.337 128.687C164.926 128.558 164.387 128.301 163.859 127.854L170.318 120.22L176.778 112.586C173.372 109.705 169.336 108.79 165.768 108.79V118.79ZM170.318 120.22L164.14 128.083C163.609 127.666 163.03 127.016 162.621 126.139C162.222 125.282 162.138 124.542 162.138 124.12H172.138H182.138C182.138 119.643 180.304 115.348 176.496 112.357L170.318 120.22ZM172.138 124.12H162.138C162.138 123.751 162.198 123.35 162.326 122.957C162.453 122.57 162.613 122.294 162.725 122.135C162.922 121.856 162.87 122.071 162.02 122.585L167.198 131.14L172.376 139.695C177.24 136.751 182.138 131.697 182.138 124.12H172.138ZM167.198 131.14L162.188 122.486C161.274 123.015 158.18 124 151.208 124V134V144C158.969 144 166.535 143.079 172.208 139.794L167.198 131.14ZM142.498 97.86L134.086 103.268C135.882 106.06 138.368 108.242 141.389 109.652L145.618 100.59L149.847 91.5282C150.018 91.608 150.232 91.7379 150.448 91.9267C150.664 92.1153 150.816 92.3056 150.91 92.4524L142.498 97.86ZM145.618 100.59L142.107 109.953C144.735 110.939 147.456 111.37 150.168 111.37V101.37V91.37C149.587 91.37 149.275 91.2812 149.129 91.2267L145.618 100.59ZM150.168 101.37V111.37C153.633 111.37 157.184 110.565 160.408 108.55L155.108 100.07L149.808 91.59C150.003 91.4684 150.179 91.403 150.288 91.3743C150.388 91.348 150.364 91.37 150.168 91.37V101.37ZM155.108 100.07L160.178 108.689C163.877 106.514 167.318 102.487 167.318 96.69H157.318H147.318C147.318 95.5014 147.667 94.2172 148.396 93.1025C149.067 92.0769 149.795 91.5935 150.038 91.4507L155.108 100.07ZM157.318 96.69H167.318C167.318 91.9109 165.156 87.9098 161.917 85.1031L155.368 92.66L148.819 100.217C148.598 100.026 148.179 99.5916 147.829 98.8681C147.467 98.1199 147.318 97.3483 147.318 96.69H157.318ZM155.368 92.66L162.173 85.3321C158.466 81.8898 153.859 80.97 150.038 80.97V90.97V100.97C150.432 100.97 150.405 101.021 150.103 100.925C149.761 100.816 149.168 100.549 148.564 99.9879L155.368 92.66ZM150.038 90.97V80.97C145.413 80.97 140.743 82.5256 137.166 86.3264L144.448 93.18L151.73 100.034C151.426 100.357 151.011 100.645 150.562 100.822C150.144 100.987 149.919 100.97 150.038 100.97V90.97ZM144.448 93.18L137.153 86.3406C134.298 89.3858 132.498 93.3309 132.498 97.86H142.498H152.498C152.498 98.279 152.412 98.7659 152.216 99.2362C152.027 99.6908 151.811 99.9471 151.743 100.019L144.448 93.18ZM190.308 128.93L182.022 134.529L182.022 134.529L190.308 128.93ZM185.888 114.76L175.947 115.849L175.955 115.925L175.965 116L185.888 114.76ZM185.628 63.02L175.677 62.025L175.67 62.0954L175.664 62.166L185.628 63.02ZM189.788 48.46L181.285 43.1964L181.239 43.2704L181.195 43.3452L189.788 48.46ZM210.458 48.46L201.865 53.5748L201.909 53.6496L201.955 53.7235L210.458 48.46ZM214.618 63.02L204.654 63.874L204.66 63.9446L204.667 64.015L214.618 63.02ZM214.098 114.24L204.201 112.808L204.193 112.863L204.185 112.918L214.098 114.24ZM209.418 128.93L217.6 134.679L217.635 134.628L217.671 134.577L209.418 128.93ZM200.058 133.74V123.74C199.128 123.74 198.799 123.572 198.794 123.569C198.783 123.564 198.784 123.564 198.776 123.557C198.765 123.547 198.699 123.488 198.594 123.331L190.308 128.93L182.022 134.529C186.294 140.852 192.868 143.74 200.058 143.74V133.74ZM190.308 128.93L198.594 123.331C197.693 121.998 196.504 119.064 195.81 113.52L185.888 114.76L175.965 116C176.832 122.936 178.589 129.449 182.022 134.529L190.308 128.93ZM185.888 114.76L195.828 113.671C195.193 107.879 194.848 99.5037 194.848 88.37H184.848H174.848C174.848 99.7696 175.195 108.987 175.947 115.849L185.888 114.76ZM184.848 88.37H194.848C194.848 77.6392 195.107 69.5195 195.591 63.874L185.628 63.02L175.664 62.166C175.108 68.6538 174.848 77.4341 174.848 88.37H184.848ZM185.628 63.02L195.578 64.015C196.098 58.8122 197.217 55.5304 198.381 53.5748L189.788 48.46L181.195 43.3452C178.025 48.6696 176.37 55.0945 175.677 62.025L185.628 63.02ZM189.788 48.46L198.29 53.7235C198.443 53.4762 198.557 53.3549 198.61 53.3048C198.659 53.2584 198.691 53.2372 198.726 53.219C198.771 53.1955 199.153 53 200.188 53V43V33C192.431 33 185.556 36.2972 181.285 43.1964L189.788 48.46ZM200.188 43V53C200.712 53 201.061 53.0511 201.271 53.0982C201.473 53.1437 201.558 53.1879 201.571 53.1947C201.58 53.1995 201.586 53.2022 201.61 53.225C201.637 53.2518 201.73 53.349 201.865 53.5748L210.458 48.46L219.051 43.3452C214.864 36.3124 207.948 33 200.188 33V43ZM210.458 48.46L201.955 53.7235C203.108 55.5862 204.215 58.7539 204.654 63.874L214.618 63.02L224.581 62.166C223.98 55.1528 222.314 48.6138 218.96 43.1964L210.458 48.46ZM214.618 63.02L204.667 64.015C205.225 69.5916 205.528 77.6567 205.528 88.37H215.528H225.528C225.528 77.4167 225.224 68.5817 224.568 62.025L214.618 63.02ZM215.528 88.37H205.528C205.528 98.799 205.057 106.89 204.201 112.808L214.098 114.24L223.995 115.672C225.045 108.417 225.528 99.261 225.528 88.37H215.528ZM214.098 114.24L204.185 112.918C203.408 118.748 202.141 121.857 201.165 123.283L209.418 128.93L217.671 134.577C221.201 129.417 223.054 122.732 224.01 115.562L214.098 114.24ZM209.418 128.93L201.236 123.181C201.073 123.413 200.953 123.532 200.895 123.584C200.841 123.632 200.818 123.643 200.817 123.643C200.816 123.644 200.781 123.663 200.684 123.685C200.583 123.708 200.383 123.74 200.058 123.74V133.74V143.74C207.234 143.74 213.436 140.605 217.6 134.679L209.418 128.93ZM252.006 134.13L251.869 124.131L251.867 124.131L252.006 134.13ZM235.236 130.23L230.393 138.979L230.425 138.997L230.458 139.015L235.236 130.23ZM223.796 119.18L215.084 124.09L215.138 124.185L215.193 124.278L223.796 119.18ZM219.506 103.32L209.507 103.469L209.508 103.544L209.51 103.618L219.506 103.32ZM223.536 87.72L214.975 82.5513L214.975 82.5513L223.536 87.72ZM235.106 76.8L230.392 67.9807L230.36 67.9978L230.328 68.0152L235.106 76.8ZM268.386 76.67L263.664 85.4848L263.696 85.5021L263.728 85.5192L268.386 76.67ZM280.086 87.59L271.553 92.8045L271.553 92.8045L280.086 87.59ZM284.636 103.32L294.635 103.166L294.634 103.094L294.631 103.022L284.636 103.32ZM280.606 118.79L289.167 123.959L289.188 123.923L289.209 123.888L280.606 118.79ZM268.906 129.84L264.075 121.084L264.043 121.102L264.011 121.12L268.906 129.84ZM258.506 99.81L251.264 106.707L251.349 106.795L251.435 106.881L258.506 99.81ZM246.286 99.81L253.357 106.881L253.443 106.795L253.527 106.707L246.286 99.81ZM246.286 112.42L239.044 119.317L239.044 119.317L246.286 112.42ZM252.006 134.13L251.867 124.131C247.15 124.196 243.285 123.225 240.014 121.445L235.236 130.23L230.458 139.015C237.066 142.609 244.381 144.237 252.145 144.129L252.006 134.13ZM235.236 130.23L240.079 121.481C236.749 119.638 234.247 117.201 232.399 114.082L223.796 119.18L215.193 124.278C218.891 130.519 224.016 135.449 230.393 138.979L235.236 130.23ZM223.796 119.18L232.507 114.27C230.665 111.001 229.629 107.313 229.501 103.022L219.506 103.32L209.51 103.618C209.729 110.941 211.554 117.826 215.084 124.09L223.796 119.18ZM219.506 103.32L229.505 103.171C229.444 99.0763 230.371 95.7472 232.097 92.8887L223.536 87.72L214.975 82.5513C211.154 88.8795 209.395 95.9504 209.507 103.469L219.506 103.32ZM223.536 87.72L232.097 92.8887C233.907 89.8895 236.425 87.4657 239.884 85.5848L235.106 76.8L230.328 68.0152C223.907 71.5076 218.711 76.3639 214.975 82.5513L223.536 87.72ZM235.106 76.8L239.82 85.6193C243.262 83.7796 247.251 82.77 252.006 82.77V72.77V62.77C244.281 62.77 237.003 64.4471 230.392 67.9807L235.106 76.8ZM252.006 72.77V82.77C256.596 82.77 260.407 83.7399 263.664 85.4848L268.386 76.67L273.108 67.8552C266.659 64.4001 259.549 62.77 252.006 62.77V72.77ZM268.386 76.67L263.728 85.5192C267.102 87.295 269.651 89.6919 271.553 92.8045L280.086 87.59L288.619 82.3755C284.801 76.1281 279.549 71.245 273.043 67.8208L268.386 76.67ZM280.086 87.59L271.553 92.8045C273.452 95.9124 274.516 99.4431 274.64 103.618L284.636 103.32L294.631 103.022C294.409 95.5836 292.439 88.6276 288.619 82.3755L280.086 87.59ZM284.636 103.32L274.637 103.474C274.696 107.33 273.8 110.659 272.003 113.692L280.606 118.79L289.209 123.888C292.958 117.561 294.749 110.576 294.635 103.166L284.636 103.32ZM280.606 118.79L272.045 113.621C270.242 116.607 267.677 119.097 264.075 121.084L268.906 129.84L273.737 138.596C280.189 135.036 285.423 130.159 289.167 123.959L280.606 118.79ZM268.906 129.84L264.011 121.12C260.689 122.985 256.726 124.064 251.869 124.131L252.006 134.13L252.143 144.129C259.939 144.022 267.243 142.242 273.801 138.56L268.906 129.84ZM252.396 115.15V125.15C257.691 125.15 262.282 122.955 265.747 119.317L258.506 112.42L251.264 105.523C251.183 105.609 251.286 105.477 251.599 105.337C251.927 105.191 252.23 105.15 252.396 105.15V115.15ZM258.506 112.42L265.747 119.317C269.181 115.711 271.106 111.144 271.106 106.05H261.106H251.106C251.106 106.059 251.105 106.019 251.12 105.942C251.135 105.864 251.16 105.774 251.197 105.684C251.234 105.593 251.272 105.529 251.295 105.494C251.317 105.46 251.314 105.471 251.264 105.523L258.506 112.42ZM261.106 106.05H271.106C271.106 100.941 269.164 96.3262 265.577 92.7389L258.506 99.81L251.435 106.881C251.46 106.906 251.337 106.784 251.225 106.516C251.174 106.394 251.142 106.279 251.123 106.183C251.105 106.09 251.106 106.041 251.106 106.05H261.106ZM258.506 99.81L265.747 92.9134C262.282 89.2753 257.691 87.08 252.396 87.08V97.08V107.08C252.23 107.08 251.927 107.039 251.599 106.893C251.286 106.753 251.183 106.621 251.264 106.707L258.506 99.81ZM252.396 97.08V87.08C247.101 87.08 242.509 89.2753 239.044 92.9134L246.286 99.81L253.527 106.707C253.609 106.621 253.505 106.753 253.193 106.893C252.865 107.039 252.561 107.08 252.396 107.08V97.08ZM246.286 99.81L239.215 92.7389C235.627 96.3262 233.686 100.941 233.686 106.05H243.686H253.686C253.686 106.041 253.686 106.09 253.668 106.183C253.65 106.279 253.618 106.394 253.567 106.516C253.455 106.784 253.332 106.906 253.357 106.881L246.286 99.81ZM243.686 106.05H233.686C233.686 111.144 235.61 115.711 239.044 119.317L246.286 112.42L253.527 105.523C253.478 105.471 253.475 105.46 253.497 105.494C253.52 105.529 253.557 105.593 253.594 105.684C253.631 105.774 253.657 105.864 253.672 105.942C253.686 106.019 253.686 106.059 253.686 106.05H243.686ZM246.286 112.42L239.044 119.317C242.509 122.955 247.101 125.15 252.396 125.15V115.15V105.15C252.561 105.15 252.865 105.191 253.193 105.337C253.505 105.477 253.609 105.609 253.527 105.523L246.286 112.42ZM378.417 135.69L373.191 127.164L373.191 127.164L378.417 135.69ZM387.907 133.48L387.431 143.469L387.442 143.469L387.453 143.47L387.907 133.48ZM396.747 132.96L394.413 123.236L394.367 123.247L394.321 123.259L396.747 132.96ZM401.687 130.1L409.448 136.406L422.696 120.1H401.687V130.1ZM382.577 126.72L378.17 135.697L378.236 135.729L378.303 135.761L382.577 126.72ZM372.177 115.93L362.96 119.811L363.002 119.909L363.045 120.007L372.177 115.93ZM372.177 79.66L363.232 75.1879L363.214 75.2245L363.196 75.2613L372.177 79.66ZM391.287 76.67L383.534 82.9867L383.662 83.1439L383.797 83.2957L391.287 76.67ZM394.277 85.51L404.274 85.7372L404.277 85.6236V85.51H394.277ZM394.147 91.23L404.117 91.997L404.138 91.7275L404.144 91.4572L394.147 91.23ZM395.577 105.66L386.561 109.987L386.596 110.06L386.632 110.132L395.577 105.66ZM408.057 105.66L417.001 110.132L417.037 110.06L417.072 109.987L408.057 105.66ZM409.487 91.36L399.489 91.5925L399.496 91.8601L399.516 92.127L409.487 91.36ZM409.357 85.77H399.357V85.8863L399.359 86.0025L409.357 85.77ZM412.217 76.54L404.727 69.9143L404.654 69.9966L404.583 70.0806L412.217 76.54ZM431.457 79.66L422.512 84.1321L422.512 84.1321L431.457 79.66ZM430.287 124.64L420.829 121.392L420.819 121.42L420.81 121.449L430.287 124.64ZM416.117 145.31L409.857 137.511L409.832 137.532L409.807 137.552L416.117 145.31ZM390.767 153.24V143.24C387.346 143.24 385.308 142.573 384.105 141.872L379.067 150.51L374.028 159.148C379.066 162.087 384.828 163.24 390.767 163.24V153.24ZM379.067 150.51L384.105 141.872C383.937 141.774 383.908 141.733 383.956 141.779C384.009 141.831 384.107 141.941 384.205 142.109C384.302 142.277 384.356 142.429 384.381 142.527C384.403 142.618 384.387 142.605 384.387 142.45H374.387H364.387C364.387 149.632 367.899 155.572 374.028 159.148L379.067 150.51ZM374.387 142.45H384.387C384.387 142.523 384.377 142.705 384.31 142.96C384.242 143.22 384.131 143.488 383.984 143.736C383.675 144.253 383.404 144.362 383.642 144.216L378.417 135.69L373.191 127.164C367.9 130.407 364.387 135.707 364.387 142.45H374.387ZM378.417 135.69L383.642 144.216C384.362 143.775 385.473 143.375 387.431 143.469L387.907 133.48L388.382 123.491C383.061 123.238 377.844 124.312 373.191 127.164L378.417 135.69ZM387.907 133.48L387.453 143.47C391.605 143.658 395.69 143.532 399.172 142.661L396.747 132.96L394.321 123.259C393.643 123.428 391.835 123.648 388.361 123.49L387.907 133.48ZM396.747 132.96L399.08 142.684C402.845 141.78 406.624 139.881 409.448 136.406L401.687 130.1L393.926 123.794C394.177 123.484 394.436 123.293 394.596 123.201C394.737 123.119 394.713 123.164 394.413 123.236L396.747 132.96ZM401.687 130.1V120.1C394.503 120.1 389.774 119.061 386.85 117.679L382.577 126.72L378.303 135.761C384.913 138.886 392.924 140.1 401.687 140.1V130.1ZM382.577 126.72L386.983 117.743C384.318 116.435 382.522 114.573 381.308 111.853L372.177 115.93L363.045 120.007C366.164 126.993 371.302 132.325 378.17 135.697L382.577 126.72ZM372.177 115.93L381.393 112.049C380.023 108.796 379.057 103.765 379.057 96.43H369.057H359.057C359.057 105.215 360.17 113.184 362.96 119.811L372.177 115.93ZM369.057 96.43H379.057C379.057 90.3658 379.987 86.4489 381.157 84.0587L372.177 79.66L363.196 75.2613C360.207 81.3645 359.057 88.6275 359.057 96.43H369.057ZM372.177 79.66L381.121 84.1321C381.566 83.2428 381.846 83.1317 381.733 83.2038C381.697 83.2272 381.678 83.2281 381.721 83.2163C381.774 83.202 381.956 83.16 382.317 83.16V73.16V63.16C378.39 63.16 374.463 64.1078 370.94 66.3662C367.448 68.6049 364.954 71.7439 363.232 75.1879L372.177 79.66ZM382.317 73.16V83.16C383.427 83.16 383.902 83.3232 383.97 83.3499C383.995 83.3595 383.934 83.338 383.828 83.262C383.719 83.184 383.616 83.0865 383.534 82.9867L391.287 76.67L399.039 70.3533C394.625 64.9358 388.278 63.16 382.317 63.16V73.16ZM391.287 76.67L383.797 83.2957C383.849 83.355 384.277 83.7738 384.277 85.51H394.277H404.277C404.277 79.9662 402.711 74.4916 398.777 70.0443L391.287 76.67ZM394.277 85.51L384.279 85.2828L384.149 91.0028L394.147 91.23L404.144 91.4572L404.274 85.7372L394.277 85.51ZM394.147 91.23L384.176 90.463C384.059 91.9803 384.017 93.9339 384.017 96.17H394.017H404.017C404.017 94.0728 404.061 92.733 404.117 91.997L394.147 91.23ZM394.017 96.17H384.017C384.017 100.885 384.562 105.821 386.561 109.987L395.577 105.66L404.592 101.333C404.594 101.337 404.428 100.976 404.274 100.04C404.124 99.1255 404.017 97.8573 404.017 96.17H394.017ZM395.577 105.66L386.632 110.132C389.95 116.767 396.419 118.78 401.817 118.78V108.78V98.78C401.303 98.78 401.649 98.6859 402.389 99.0557C402.778 99.2502 403.212 99.5436 403.623 99.9539C404.033 100.364 404.326 100.799 404.521 101.188L395.577 105.66ZM401.817 108.78V118.78C407.214 118.78 413.683 116.767 417.001 110.132L408.057 105.66L399.112 101.188C399.307 100.799 399.6 100.364 400.011 99.9539C400.421 99.5436 400.855 99.2502 401.245 99.0557C401.984 98.6859 402.33 98.78 401.817 98.78V108.78ZM408.057 105.66L417.072 109.987C419.062 105.841 419.617 100.967 419.617 96.3H409.617H399.617C399.617 97.9339 399.511 99.1631 399.363 100.051C399.29 100.488 399.213 100.807 399.148 101.026C399.083 101.246 399.039 101.338 399.041 101.333L408.057 105.66ZM409.617 96.3H419.617C419.617 94.0639 419.574 92.1103 419.457 90.593L409.487 91.36L399.516 92.127C399.573 92.863 399.617 94.2028 399.617 96.3H409.617ZM409.487 91.36L419.484 91.1275L419.354 85.5375L409.357 85.77L399.359 86.0025L399.489 91.5925L409.487 91.36ZM409.357 85.77H419.357C419.357 84.6196 419.499 83.9 419.624 83.4973C419.739 83.1246 419.842 83.01 419.851 82.9994L412.217 76.54L404.583 70.0806C400.716 74.6503 399.357 80.2734 399.357 85.77H409.357ZM412.217 76.54L419.707 83.1657C419.638 83.2432 419.559 83.3112 419.487 83.3597C419.417 83.4062 419.399 83.405 419.469 83.3792C419.624 83.3213 420.174 83.16 421.317 83.16V73.16V63.16C415.441 63.16 409.224 64.8306 404.727 69.9143L412.217 76.54ZM421.317 73.16V83.16C421.677 83.16 421.859 83.202 421.912 83.2163C421.955 83.2281 421.936 83.2272 421.9 83.2038C421.788 83.1317 422.068 83.2428 422.512 84.1321L431.457 79.66L440.401 75.1879C438.679 71.7439 436.186 68.6049 432.693 66.3662C429.17 64.1078 425.244 63.16 421.317 63.16V73.16ZM431.457 79.66L422.512 84.1321C423.758 86.6244 424.707 90.5351 424.707 96.43H434.707H444.707C444.707 88.6315 443.488 81.3623 440.401 75.1879L431.457 79.66ZM434.707 96.43H424.707C424.707 105.69 423.374 113.981 420.829 121.392L430.287 124.64L439.744 127.888C443.093 118.139 444.707 107.623 444.707 96.43H434.707ZM430.287 124.64L420.81 121.449C418.521 128.246 414.86 133.496 409.857 137.511L416.117 145.31L422.376 153.109C430.546 146.551 436.333 138.02 439.764 127.831L430.287 124.64ZM416.117 145.31L409.807 137.552C405.487 141.066 399.438 143.24 390.767 143.24V153.24V163.24C402.895 163.24 413.746 160.128 422.426 153.068L416.117 145.31Z" fill="#F5A2D8" mask="url(#path-1-outside-1_66_1102)"/>
<circle cx="103" cy="93" r="1" fill="white"/>
<mask id="path-4-outside-2_66_1102" maskUnits="userSpaceOnUse" x="259.694" y="-10.0994" width="147.159" height="179.073" fill="black">
<rect fill="white" x="259.694" y="-10.0994" width="147.159" height="179.073"/>
<path d="M308.37 142.55C306.127 142.419 303.864 142.083 301.584 141.542C297.91 140.67 294.434 139.244 291.157 137.262C287.88 135.28 285.104 132.882 282.827 130.067C280.551 127.252 278.965 124.066 278.069 120.508C277.204 116.823 277.315 112.968 278.404 108.944C279.185 105.65 280.555 102.697 282.513 100.083C284.471 97.4699 286.782 95.3417 289.447 93.6988C292.142 91.9293 295.16 90.7717 298.501 90.226C301.969 89.7104 305.603 89.9034 309.404 90.805C312.698 91.5864 315.823 92.7961 318.78 94.4343C321.767 95.9458 324.392 97.5722 326.656 99.3135C327.311 95.9894 327.91 92.0501 328.455 87.4957C329.031 82.8145 329.524 77.9133 329.936 72.792C330.348 67.6706 330.697 62.5343 330.982 57.3829C331.297 52.1048 331.507 47.2702 331.612 42.8789C331.874 38.3911 332.048 34.5517 332.136 31.3608C332.224 28.1699 332.261 26.0376 332.248 24.964C332.296 23.637 332.563 22.2283 333.05 20.7381C333.664 19.2779 334.517 17.9411 335.607 16.7278C336.698 15.5145 337.934 14.5363 339.314 13.7932C340.822 13.0802 342.492 12.8074 344.326 12.9748C347.203 13.2558 350.099 13.742 353.013 14.4332C364.922 17.2582 373.845 22.5195 379.78 30.2171C385.746 37.7881 387.787 47.2382 385.902 58.5674C385.087 64.2621 383.257 69.7164 380.415 74.9302C377.572 80.1441 373.87 84.7524 369.307 88.7553C367.492 90.1984 365.593 91.1531 363.609 91.6192C361.752 92.1153 360.063 92.1831 358.543 91.8224C356.516 91.3416 355.019 90.3174 354.052 88.75C353.213 87.2126 353.38 85.3788 354.554 83.2486C357.927 77.4914 360.41 71.2555 362.003 64.5408C362.424 62.7671 362.688 61.09 362.795 59.5096C363.029 57.9593 363.2 56.3939 363.307 54.8134C363.255 50.5189 362.151 46.7107 359.995 43.389C357.839 40.0673 354.824 37.5455 350.95 35.8237C350.995 39.5814 350.849 44.4311 350.51 50.3727C350.328 56.2177 349.947 62.6177 349.368 69.5728C348.819 76.4013 348.034 83.3747 347.015 90.493C346.122 97.6414 344.939 104.32 343.467 110.528C342.325 115.342 340.971 119.638 339.406 123.415C337.871 127.065 336.091 130.056 334.066 132.386C331.198 135.452 327.581 138.007 323.216 140.049C318.88 141.965 313.932 142.798 308.37 142.55Z"/>
</mask>
<path d="M308.37 142.55C306.127 142.419 303.864 142.083 301.584 141.542C297.91 140.67 294.434 139.244 291.157 137.262C287.88 135.28 285.104 132.882 282.827 130.067C280.551 127.252 278.965 124.066 278.069 120.508C277.204 116.823 277.315 112.968 278.404 108.944C279.185 105.65 280.555 102.697 282.513 100.083C284.471 97.4699 286.782 95.3417 289.447 93.6988C292.142 91.9293 295.16 90.7717 298.501 90.226C301.969 89.7104 305.603 89.9034 309.404 90.805C312.698 91.5864 315.823 92.7961 318.78 94.4343C321.767 95.9458 324.392 97.5722 326.656 99.3135C327.311 95.9894 327.91 92.0501 328.455 87.4957C329.031 82.8145 329.524 77.9133 329.936 72.792C330.348 67.6706 330.697 62.5343 330.982 57.3829C331.297 52.1048 331.507 47.2702 331.612 42.8789C331.874 38.3911 332.048 34.5517 332.136 31.3608C332.224 28.1699 332.261 26.0376 332.248 24.964C332.296 23.637 332.563 22.2283 333.05 20.7381C333.664 19.2779 334.517 17.9411 335.607 16.7278C336.698 15.5145 337.934 14.5363 339.314 13.7932C340.822 13.0802 342.492 12.8074 344.326 12.9748C347.203 13.2558 350.099 13.742 353.013 14.4332C364.922 17.2582 373.845 22.5195 379.78 30.2171C385.746 37.7881 387.787 47.2382 385.902 58.5674C385.087 64.2621 383.257 69.7164 380.415 74.9302C377.572 80.1441 373.87 84.7524 369.307 88.7553C367.492 90.1984 365.593 91.1531 363.609 91.6192C361.752 92.1153 360.063 92.1831 358.543 91.8224C356.516 91.3416 355.019 90.3174 354.052 88.75C353.213 87.2126 353.38 85.3788 354.554 83.2486C357.927 77.4914 360.41 71.2555 362.003 64.5408C362.424 62.7671 362.688 61.09 362.795 59.5096C363.029 57.9593 363.2 56.3939 363.307 54.8134C363.255 50.5189 362.151 46.7107 359.995 43.389C357.839 40.0673 354.824 37.5455 350.95 35.8237C350.995 39.5814 350.849 44.4311 350.51 50.3727C350.328 56.2177 349.947 62.6177 349.368 69.5728C348.819 76.4013 348.034 83.3747 347.015 90.493C346.122 97.6414 344.939 104.32 343.467 110.528C342.325 115.342 340.971 119.638 339.406 123.415C337.871 127.065 336.091 130.056 334.066 132.386C331.198 135.452 327.581 138.007 323.216 140.049C318.88 141.965 313.932 142.798 308.37 142.55Z" fill="white"/>
<path d="M308.37 142.55L307.788 152.533L307.856 152.537L307.924 152.54L308.37 142.55ZM282.827 130.067L275.052 136.355L282.827 130.067ZM278.069 120.508L268.334 122.795L268.353 122.872L268.372 122.949L278.069 120.508ZM278.404 108.944L288.057 111.555L288.097 111.404L288.134 111.252L278.404 108.944ZM289.447 93.6988L294.695 102.211L294.817 102.136L294.936 102.058L289.447 93.6988ZM298.501 90.226L297.03 80.3347L296.96 80.3452L296.889 80.3567L298.501 90.226ZM318.78 94.4343L313.934 103.182L314.098 103.272L314.265 103.357L318.78 94.4343ZM326.656 99.3135L320.558 107.239L333.349 117.08L336.467 101.246L326.656 99.3135ZM328.455 87.4957L318.53 86.2762L318.528 86.2918L318.526 86.3074L328.455 87.4957ZM330.982 57.3829L321 56.7866L320.998 56.8084L320.997 56.8301L330.982 57.3829ZM331.612 42.8789L321.629 42.2969L321.619 42.4684L321.615 42.6401L331.612 42.8789ZM332.248 24.964L322.255 24.609L322.246 24.8468L322.249 25.0847L332.248 24.964ZM333.05 20.7381L323.832 16.8618L323.673 17.24L323.545 17.6299L333.05 20.7381ZM339.314 13.7932L335.038 4.75356L334.804 4.86455L334.575 4.98756L339.314 13.7932ZM344.326 12.9748L345.298 3.02214L345.267 3.01904L345.235 3.01615L344.326 12.9748ZM379.78 30.2171L371.861 36.3236L371.893 36.3651L371.926 36.4063L379.78 30.2171ZM385.902 58.5674L376.038 56.9266L376.019 57.038L376.003 57.1498L385.902 58.5674ZM369.307 88.7553L375.532 96.5816L375.72 96.4315L375.902 96.2725L369.307 88.7553ZM363.609 91.6192L361.322 81.8842L361.175 81.9188L361.028 81.9579L363.609 91.6192ZM354.052 88.75L345.276 93.5434L345.402 93.7742L345.54 93.9981L354.052 88.75ZM354.554 83.2486L345.926 78.1935L345.86 78.3062L345.797 78.4205L354.554 83.2486ZM362.795 59.5096L352.907 58.0176L352.846 58.4232L352.818 58.8326L362.795 59.5096ZM363.307 54.8134L373.284 55.4905L373.311 55.0921L373.306 54.6927L363.307 54.8134ZM350.95 35.8237L355.012 26.6857L340.762 20.3522L340.951 35.9444L350.95 35.8237ZM350.51 50.3727L340.526 49.8033L340.519 49.9322L340.515 50.0613L350.51 50.3727ZM349.368 69.5728L339.402 68.7428L339.401 68.757L339.4 68.7711L349.368 69.5728ZM347.015 90.493L337.116 89.0754L337.103 89.1645L337.092 89.2538L347.015 90.493ZM339.406 123.415L348.624 127.291L348.634 127.267L348.644 127.243L339.406 123.415ZM334.066 132.386L341.369 139.217L341.494 139.083L341.615 138.945L334.066 132.386ZM323.216 140.049L327.257 149.196L327.356 149.152L327.453 149.107L323.216 140.049ZM308.37 142.55L308.952 132.566C307.314 132.471 305.63 132.224 303.892 131.812L301.584 141.542L299.276 151.272C302.099 151.942 304.939 152.366 307.788 152.533L308.37 142.55ZM301.584 141.542L303.892 131.812C301.243 131.184 298.733 130.157 296.332 128.705L291.157 137.262L285.983 145.819C290.136 148.33 294.577 150.157 299.276 151.272L301.584 141.542ZM291.157 137.262L296.332 128.705C293.989 127.288 292.109 125.642 290.603 123.779L282.827 130.067L275.052 136.355C278.098 140.122 281.772 143.272 285.983 145.819L291.157 137.262ZM282.827 130.067L290.603 123.779C289.251 122.107 288.313 120.238 287.767 118.066L278.069 120.508L268.372 122.949C269.617 127.894 271.851 132.397 275.052 136.355L282.827 130.067ZM278.069 120.508L287.804 118.221C287.355 116.309 287.356 114.144 288.057 111.555L278.404 108.944L268.75 106.334C267.274 111.793 267.052 117.337 268.334 122.795L278.069 120.508ZM278.404 108.944L288.134 111.252C288.61 109.243 289.41 107.555 290.516 106.08L282.513 100.083L274.51 94.087C271.699 97.8388 269.76 102.058 268.674 106.636L278.404 108.944ZM282.513 100.083L290.516 106.08C291.755 104.426 293.144 103.167 294.695 102.211L289.447 93.6988L284.199 85.1866C280.42 87.5162 277.187 90.5136 274.51 94.087L282.513 100.083ZM289.447 93.6988L294.936 102.058C296.4 101.096 298.085 100.426 300.113 100.095L298.501 90.226L296.889 80.3567C292.235 81.1169 287.883 82.7622 283.958 85.34L289.447 93.6988ZM298.501 90.226L299.972 100.117C302.045 99.809 304.392 99.8935 307.096 100.535L309.404 90.805L311.712 81.075C306.814 79.9132 301.892 79.6118 297.03 80.3347L298.501 90.226ZM309.404 90.805L307.096 100.535C309.504 101.106 311.776 101.986 313.934 103.182L318.78 94.4343L323.626 85.687C319.871 83.6065 315.891 82.0664 311.712 81.075L309.404 90.805ZM318.78 94.4343L314.265 103.357C316.787 104.633 318.866 105.937 320.558 107.239L326.656 99.3135L332.753 91.3876C329.919 89.2069 326.747 87.2584 323.295 85.5116L318.78 94.4343ZM326.656 99.3135L336.467 101.246C337.184 97.6067 337.819 93.4072 338.385 88.684L328.455 87.4957L318.526 86.3074C318.001 90.6931 317.437 94.3721 316.844 97.3811L326.656 99.3135ZM328.455 87.4957L338.381 88.7151C338.974 83.8834 339.482 78.8423 339.904 73.5937L329.936 72.792L319.968 71.9903C319.567 76.9843 319.087 81.7457 318.53 86.2762L328.455 87.4957ZM329.936 72.792L339.904 73.5937C340.322 68.3891 340.677 63.1698 340.966 57.9357L330.982 57.3829L320.997 56.8301C320.716 61.8988 320.373 66.9522 319.968 71.9903L329.936 72.792ZM330.982 57.3829L340.964 57.9791C341.285 52.6051 341.501 47.6492 341.609 43.1177L331.612 42.8789L321.615 42.6401C321.513 46.8911 321.309 51.6046 321 56.7866L330.982 57.3829ZM331.612 42.8789L341.595 43.4609C341.86 38.9085 342.041 34.9609 342.132 31.6359L332.136 31.3608L322.14 31.0857C322.056 34.1425 321.887 37.8737 321.629 42.2969L331.612 42.8789ZM332.136 31.3608L342.132 31.6359C342.219 28.4767 342.263 26.1474 342.248 24.8433L332.248 24.964L322.249 25.0847C322.259 25.9279 322.229 27.8632 322.14 31.0857L332.136 31.3608ZM332.248 24.964L342.242 25.319C342.251 25.079 342.308 24.6022 342.555 23.8462L333.05 20.7381L323.545 17.6299C322.818 19.8545 322.34 22.1949 322.255 24.609L332.248 24.964ZM333.05 20.7381L342.268 24.6143C342.437 24.2142 342.677 23.8214 343.044 23.4133L335.607 16.7278L328.171 10.0423C326.356 12.0608 324.892 14.3415 323.832 16.8618L333.05 20.7381ZM335.607 16.7278L343.044 23.4133C343.396 23.0217 343.728 22.774 344.054 22.5989L339.314 13.7932L334.575 4.98756C332.139 6.29866 330 8.00734 328.171 10.0423L335.607 16.7278ZM339.314 13.7932L343.59 22.8329C343.543 22.8553 343.491 22.8756 343.438 22.892C343.385 22.9084 343.341 22.918 343.31 22.9231C343.242 22.9341 343.268 22.9197 343.417 22.9334L344.326 12.9748L345.235 3.01615C341.813 2.70382 338.326 3.19858 335.038 4.75356L339.314 13.7932ZM344.326 12.9748L343.354 22.9274C345.766 23.163 348.215 23.5726 350.705 24.1632L353.013 14.4332L355.321 4.70322C351.983 3.91142 348.641 3.3487 345.298 3.02214L344.326 12.9748ZM353.013 14.4332L350.705 24.1632C360.975 26.5993 367.656 30.87 371.861 36.3236L379.78 30.2171L387.699 24.1107C380.033 14.169 368.87 7.91707 355.321 4.70322L353.013 14.4332ZM379.78 30.2171L371.926 36.4063C375.816 41.3439 377.557 47.7948 376.038 56.9266L385.902 58.5674L395.767 60.2083C398.017 46.6816 395.676 34.2322 387.635 24.0279L379.78 30.2171ZM385.902 58.5674L376.003 57.1498C375.362 61.6255 373.925 65.9425 371.635 70.1434L380.415 74.9302L389.195 79.7171C392.59 73.4903 394.811 66.8987 395.801 59.9851L385.902 58.5674ZM380.415 74.9302L371.635 70.1434C369.367 74.3029 366.411 77.9925 362.712 81.2382L369.307 88.7553L375.902 96.2725C381.328 91.5123 385.777 85.9853 389.195 79.7171L380.415 74.9302ZM369.307 88.7553L363.082 80.929C362.264 81.5796 361.683 81.7994 361.322 81.8842L363.609 91.6192L365.896 101.354C369.503 100.507 372.721 98.8173 375.532 96.5816L369.307 88.7553ZM363.609 91.6192L361.028 81.9579C360.716 82.0412 360.564 82.0495 360.549 82.0501C360.541 82.0504 360.655 82.046 360.851 82.0924L358.543 91.8224L356.235 101.552C359.695 102.373 363.097 102.106 366.19 101.28L363.609 91.6192ZM358.543 91.8224L360.851 82.0924C360.85 82.0924 360.923 82.1096 361.049 82.1636C361.178 82.2184 361.351 82.3066 361.547 82.4408C361.971 82.7312 362.325 83.1134 362.565 83.5019L354.052 88.75L345.54 93.9981C348.086 98.127 351.996 100.547 356.235 101.552L358.543 91.8224ZM354.052 88.75L362.829 83.9565C363.41 85.0209 363.594 86.1781 363.507 87.1304C363.432 87.9544 363.188 88.3015 363.312 88.0766L354.554 83.2486L345.797 78.4205C343.679 82.2635 342.202 87.9159 345.276 93.5434L354.052 88.75ZM354.554 83.2486L363.183 88.3037C367.074 81.6615 369.919 74.4955 371.733 66.8489L362.003 64.5408L352.273 62.2327C350.901 68.0155 348.781 73.3214 345.926 78.1935L354.554 83.2486ZM362.003 64.5408L371.733 66.8489C372.262 64.6174 372.623 62.3914 372.772 60.1867L362.795 59.5096L352.818 58.8326C352.753 59.7887 352.585 60.9168 352.273 62.2327L362.003 64.5408ZM362.795 59.5096L372.683 61.0017C372.958 59.1782 373.158 57.3409 373.284 55.4905L363.307 54.8134L353.33 54.1364C353.241 55.4468 353.1 56.7403 352.907 58.0176L362.795 59.5096ZM363.307 54.8134L373.306 54.6927C373.234 48.6731 371.656 42.9866 368.383 37.9444L359.995 43.389L351.607 48.8336C352.646 50.4348 353.277 52.3646 353.308 54.9342L363.307 54.8134ZM359.995 43.389L368.383 37.9444C365.097 32.8829 360.524 29.1359 355.012 26.6857L350.95 35.8237L346.888 44.9617C349.124 45.9551 350.58 47.2517 351.607 48.8336L359.995 43.389ZM350.95 35.8237L340.951 35.9444C340.992 39.3797 340.858 43.9759 340.526 49.8033L350.51 50.3727L360.494 50.9421C360.839 44.8863 360.999 39.7831 360.949 35.7029L350.95 35.8237ZM350.51 50.3727L340.515 50.0613C340.339 55.704 339.97 61.9285 339.402 68.7428L349.368 69.5728L359.333 70.4028C359.924 63.3069 360.317 56.7313 360.505 50.6841L350.51 50.3727ZM349.368 69.5728L339.4 68.7711C338.868 75.3837 338.107 82.1515 337.116 89.0754L347.015 90.493L356.914 91.9107C357.961 84.5978 358.769 77.4188 359.336 70.3745L349.368 69.5728ZM347.015 90.493L337.092 89.2538C336.238 96.0877 335.116 102.406 333.737 108.219L343.467 110.528L353.197 112.836C354.763 106.234 356.006 99.1952 356.938 91.7323L347.015 90.493ZM343.467 110.528L333.737 108.219C332.693 112.619 331.492 116.392 330.168 119.587L339.406 123.415L348.644 127.243C350.451 122.883 351.956 118.065 353.197 112.836L343.467 110.528ZM339.406 123.415L330.188 119.539C328.954 122.474 327.683 124.486 326.518 125.826L334.066 132.386L341.615 138.945C344.499 135.625 346.788 131.657 348.624 127.291L339.406 123.415ZM334.066 132.386L326.764 125.554C324.884 127.563 322.358 129.41 318.978 130.991L323.216 140.049L327.453 149.107C332.804 146.603 337.511 143.341 341.369 139.217L334.066 132.386ZM323.216 140.049L319.174 130.902C316.476 132.094 313.105 132.751 308.817 132.56L308.37 142.55L307.924 152.54C314.759 152.845 321.285 151.835 327.257 149.196L323.216 140.049Z" fill="#F5A2D8" mask="url(#path-4-outside-2_66_1102)"/>
<circle cx="293" cy="123" r="4" fill="#F5A2D8"/>
<path d="M288.281 113.117C287.611 108.911 288.281 100.745 298.009 97.7455" stroke="#F5A2D8" stroke-width="7" stroke-linecap="round"/>
<path d="M150 90C153.478 90 156 92.6217 156 95.5C156 98.3783 153.478 101 150 101C146.522 101 144 98.3783 144 95.5C144 92.6217 146.522 90 150 90Z" fill="#F9F9F9" stroke="#F5A2D8" stroke-width="6"/>
<circle cx="252.5" cy="106.5" r="6.5" fill="#F9F9F9" stroke="#F5A2D8" stroke-width="6"/>
</svg>
