<svg width="14" height="15" viewBox="0 0 14 15" fill="none" xmlns="http://www.w3.org/2000/svg">
<path d="M6.79688 5.28906C6.875 5.79688 6.95312 6.40234 7.01172 7.125C7.07031 7.86719 7.10938 8.58984 7.10938 9.33203C7.10938 10.0352 7.05078 10.6797 6.97266 11.2656C6.89453 11.8516 6.73828 12.3008 6.52344 12.6133V12.5938C6.21094 13.0234 5.82031 13.4141 5.35156 13.7266C4.88281 14.0391 4.31641 14.1953 3.69141 14.1953C3.41797 14.1953 3.125 14.1562 2.8125 14.0781C2.5 14 2.1875 13.8828 1.89453 13.707C1.36719 13.3945 0.996094 13.0625 0.800781 12.6719C0.585938 12.2812 0.488281 11.9102 0.488281 11.5195C0.488281 11.4023 0.488281 11.2461 0.507812 11.0898C0.527344 10.9336 0.566406 10.7773 0.625 10.6016C0.761719 10.1523 0.957031 9.80078 1.23047 9.56641C1.50391 9.33203 1.83594 9.13672 2.26562 8.98047C2.48047 8.92188 2.77344 8.88281 3.125 8.88281C3.41797 8.88281 3.73047 8.92188 4.04297 9C4.35547 9.07812 4.62891 9.17578 4.86328 9.27344C4.82422 8.96094 4.80469 8.58984 4.76562 8.16016C4.72656 7.73047 4.66797 7.30078 4.62891 6.83203C4.57031 6.38281 4.51172 5.93359 4.45312 5.46484C4.375 4.99609 4.31641 4.58594 4.27734 4.19531C4.21875 3.80469 4.16016 3.47266 4.12109 3.17969C4.08203 2.90625 4.04297 2.71094 4.02344 2.59375C3.92578 2.28125 3.88672 2.00781 3.88672 1.75391C3.88672 1.34375 4.00391 1.03125 4.27734 0.816406C4.53125 0.601562 4.98047 0.503906 5.60547 0.503906C5.625 0.503906 5.83984 0.523438 6.26953 0.523438C6.67969 0.542969 7.16797 0.5625 7.75391 0.582031C8.32031 0.621094 8.90625 0.640625 9.51172 0.660156C10.0977 0.699219 10.6055 0.71875 10.9961 0.71875C11.3477 0.757812 11.6602 0.777344 11.8945 0.816406C12.1289 0.855469 12.3047 0.914062 12.4609 1.01172C12.5977 1.10938 12.7148 1.24609 12.8125 1.42188C12.8906 1.59766 12.9883 1.83203 13.0859 2.10547C13.1445 2.37891 13.2227 2.76953 13.3008 3.23828C13.3789 3.70703 13.4375 4.23438 13.5156 4.82031C13.5742 5.40625 13.6328 6.03125 13.6719 6.67578C13.7109 7.32031 13.7305 7.94531 13.7305 8.53125C13.7305 8.96094 13.7109 9.37109 13.6914 9.78125C13.6523 10.1914 13.6133 10.582 13.5742 10.9336C13.5156 11.2852 13.4375 11.6172 13.3594 11.9102C13.2617 12.2031 13.1641 12.4375 13.0469 12.6328C12.7734 13.0625 12.3633 13.4141 11.8359 13.6875C11.3086 13.9609 10.7617 14.0977 10.1758 14.0977C9.88281 14.0977 9.60938 14.0781 9.33594 14C9.0625 13.9414 8.78906 13.8438 8.55469 13.6875H8.57422C8.02734 13.375 7.65625 13.0234 7.44141 12.6328C7.22656 12.2617 7.12891 11.8906 7.12891 11.5C7.12891 11.2656 7.16797 10.9922 7.28516 10.6406C7.42188 10.1914 7.65625 9.83984 8.00781 9.58594C8.33984 9.33203 8.69141 9.15625 9.04297 9.03906H9.02344C9.25781 8.96094 9.55078 8.90234 9.90234 8.90234C10.2148 8.90234 10.5078 8.96094 10.7812 9.03906C11.0547 9.11719 11.3086 9.23438 11.543 9.35156V8.90234C11.543 8.64844 11.5234 8.35547 11.5234 8.02344C11.5039 7.71094 11.4844 7.37891 11.4648 7.06641C11.4453 6.75391 11.4258 6.46094 11.4062 6.1875C11.3867 5.91406 11.3672 5.69922 11.3477 5.50391L6.79688 5.28906ZM6.23047 2.45703C6.26953 2.63281 6.30859 2.78906 6.34766 2.94531C6.38672 3.10156 6.42578 3.25781 6.46484 3.43359C6.85547 3.45312 7.24609 3.47266 7.63672 3.49219C8.00781 3.51172 8.37891 3.53125 8.75 3.55078C9.10156 3.57031 9.47266 3.58984 9.86328 3.60938C10.2344 3.64844 10.625 3.66797 11.0547 3.66797C11.0156 3.51172 10.9961 3.33594 10.957 3.17969C10.918 3.02344 10.8984 2.84766 10.8789 2.65234L6.23047 2.45703Z" fill="#A4A6D2"/>
</svg>
