<svg width="18" height="18" viewBox="0 0 18 18" fill="none" xmlns="http://www.w3.org/2000/svg">
<path d="M9 0C13.9706 0 18 4.02944 18 9C18 13.9706 13.9706 18 9 18C4.02944 18 0 13.9706 0 9C0 4.02944 4.02944 0 9 0ZM9 1.89453C5.07587 1.89453 1.89453 5.07587 1.89453 9C1.89453 12.9241 5.07587 16.1055 9 16.1055C12.9241 16.1055 16.1055 12.9241 16.1055 9C16.1055 5.07587 12.9241 1.89453 9 1.89453Z" fill="#343434"/>
<circle cx="8.99987" cy="8.05261" r="3.31579" fill="#343434"/>
<path d="M9.06494 12.3158C11.7438 12.3158 14.0759 13.601 15.2866 15.4984C13.6702 17.0463 11.4797 18.0004 9.06494 18.0004C6.65011 18.0003 4.45965 17.0465 2.84326 15.4984C4.05385 13.601 6.38612 12.3159 9.06494 12.3158Z" fill="#343434"/>
</svg>
