<svg width="18" height="18" viewBox="0 0 18 18" fill="none" xmlns="http://www.w3.org/2000/svg">
<rect x="11.9004" y="10.4226" width="8.62736" height="2.08883" rx="1.04441" transform="rotate(45 11.9004 10.4226)" fill="#343434"/>
<path d="M6.89258 0C10.6989 0.000168789 13.7842 3.08619 13.7842 6.89258C13.784 10.6988 10.6988 13.784 6.89258 13.7842C3.08619 13.7842 0.000168792 10.6989 0 6.89258C0 3.08608 3.08608 0 6.89258 0ZM6.89258 1.62207C3.98175 1.6221 1.62207 3.98175 1.62207 6.89258C1.62222 9.80329 3.98184 12.1631 6.89258 12.1631C9.80334 12.1631 12.1629 9.8033 12.1631 6.89258C12.1631 3.98173 9.80343 1.62207 6.89258 1.62207Z" fill="#343434"/>
</svg>
