<svg width="12" height="15" viewBox="0 0 12 15" fill="none" xmlns="http://www.w3.org/2000/svg">
<path d="M3.77774 14.181C3.55328 14.1928 3.32473 14.1844 3.0921 14.1558C2.71731 14.1098 2.35613 14.0064 2.00854 13.8457C1.66096 13.6849 1.35849 13.4773 1.10114 13.2226C0.843798 12.968 0.650955 12.6689 0.522617 12.3251C0.395866 11.9685 0.364341 11.5842 0.428044 11.1722C0.469302 10.8362 0.572799 10.5275 0.738534 10.2461C0.904269 9.96473 1.11048 9.72767 1.35716 9.53494C1.60542 9.32929 1.89258 9.18089 2.21862 9.08974C2.55758 9.00017 2.92092 8.97919 3.30863 9.02679C3.64465 9.06805 3.96865 9.15375 4.28064 9.28389C4.59421 9.4011 4.8731 9.53373 5.11729 9.68178C5.14562 9.34418 5.16171 8.94604 5.16556 8.48736C5.17099 8.01575 5.16588 7.52318 5.15022 7.00963C5.13456 6.49608 5.11245 5.98174 5.08387 5.4666C5.05687 4.93854 5.02433 4.45572 4.98623 4.01813C4.96264 3.5692 4.93757 3.18568 4.91104 2.86757C4.8845 2.54947 4.86466 2.33714 4.85151 2.23057C4.84153 2.09816 4.85252 1.9552 4.88449 1.80171C4.92938 1.64979 4.99932 1.50752 5.09432 1.37488C5.18932 1.24224 5.30132 1.13136 5.43033 1.04225C5.57226 0.954732 5.73528 0.909156 5.91939 0.905524C6.20847 0.901663 6.50164 0.917981 6.79888 0.954479C8.01372 1.10364 8.95864 1.52795 9.63363 2.2274C10.3102 2.91394 10.6175 3.83061 10.5554 4.97742C10.5372 5.55241 10.4157 6.11471 10.1908 6.66432C9.96591 7.21392 9.64883 7.71285 9.23959 8.16111C9.07521 8.32459 8.897 8.44045 8.70496 8.5087C8.52585 8.57854 8.35874 8.60394 8.20366 8.5849C7.99688 8.55951 7.8368 8.47426 7.72343 8.32915C7.62299 8.18563 7.61936 8.00153 7.71254 7.77683C7.98415 7.16737 8.16201 6.52016 8.24611 5.8352C8.26833 5.65427 8.27603 5.48467 8.26923 5.32641C8.27534 5.16974 8.275 5.01227 8.2682 4.85402C8.21558 4.42776 8.06378 4.06148 7.81278 3.75517C7.56178 3.44886 7.23426 3.23154 6.83022 3.10322C6.87626 3.47619 6.91526 3.95981 6.94725 4.55408C6.99374 5.13701 7.02663 5.7773 7.04592 6.47495C7.06679 7.15968 7.0659 7.86142 7.04324 8.58016C7.03351 9.30049 6.98977 9.97729 6.91201 10.6106C6.85171 11.1017 6.76465 11.5436 6.65084 11.9363C6.53862 12.316 6.39476 12.6329 6.21928 12.8868C5.96807 13.2233 5.63682 13.5172 5.22553 13.7684C4.81583 14.0067 4.33323 14.1442 3.77774 14.181Z" fill="#EB525E"/>
</svg>
