<svg width="19" height="18" viewBox="0 0 19 18" fill="none" xmlns="http://www.w3.org/2000/svg">
<path d="M15.549 10.238C16.515 9.134 17.067 8.122 17.32 7.156C17.55 6.259 17.504 5.408 17.343 4.488C16.952 2.786 15.526 1.36 13.617 1.36C11.777 1.36 10.673 3.338 9.523 5.086C8.189 3.246 7.292 1.36 5.383 1.36C3.451 1.36 2.048 2.763 1.634 4.488C1.473 5.385 1.45 6.236 1.657 7.156C1.956 8.145 2.462 9.134 3.451 10.215C5.061 12.055 6.901 13.55 9.454 15.597C11.685 13.688 14.33 11.641 15.549 10.238ZM16.492 11.066C15.043 12.745 11.8 15.183 9.5 17.253C6.51 14.861 4.348 13.159 2.508 11.066C1.381 9.824 0.783 8.628 0.438 7.478C0.162 6.351 0.208 5.27 0.392 4.235C0.921 2.027 2.761 0.0949997 5.383 0.0949997C7.407 0.0949997 8.58 1.521 9.5 2.832C10.42 1.521 11.685 0.0949997 13.617 0.0949997C16.216 0.0949997 18.102 2.027 18.585 4.235C18.769 5.27 18.838 6.351 18.539 7.478C18.24 8.628 17.596 9.824 16.492 11.066Z" fill="#343434"/>
</svg>
