<svg width="19" height="18" viewBox="0 0 19 18" fill="none" xmlns="http://www.w3.org/2000/svg">
<path d="M16.4 11.043C14.997 12.699 11.777 15.114 9.5 17.161C6.533 14.792 4.394 13.113 2.577 11.043C1.496 9.824 0.875 8.628 0.53 7.501C0.254 6.374 0.3 5.316 0.484 4.304C1.013 2.096 2.83 0.21 5.429 0.21C7.292 0.21 8.58 1.613 9.5 2.901C10.42 1.613 11.57 0.21 13.548 0.21C16.147 0.21 17.987 2.096 18.493 4.304C18.677 5.316 18.746 6.374 18.447 7.501C18.125 8.628 17.481 9.824 16.4 11.043Z" fill="#343434"/>
</svg>
