<svg width="442" height="260" viewBox="0 0 442 260" fill="none" xmlns="http://www.w3.org/2000/svg">
<mask id="path-1-outside-1_66_1102" maskUnits="userSpaceOnUse" x="0" y="78" width="442" height="131" fill="black">
<rect fill="white" y="78" width="442" height="131"/>
<path d="M60.56 179C57.6133 179 55.1433 178.263 53.15 176.79C51.2433 175.23 49.9 173.15 49.12 170.55C48.4267 168.123 47.9933 165.48 47.82 162.62C47.7333 159.76 47.69 155.73 47.69 150.53C47.69 145.677 47.4733 142.08 47.04 139.74C46.6933 137.4 45.7833 136.23 44.31 136.23C42.5767 136.23 41.3633 137.01 40.67 138.57C39.9767 140.043 39.63 142.167 39.63 144.94C39.63 147.453 39.9767 151.397 40.67 156.77C40.7567 157.81 40.93 159.457 41.19 161.71C41.45 163.963 41.58 165.827 41.58 167.3C41.58 171.46 40.6267 174.407 38.72 176.14C36.9 177.873 34.2133 178.74 30.66 178.74C26.4133 178.74 22.73 176.443 19.61 171.85C16.49 167.257 14.15 161.537 12.59 154.69C11.03 147.757 10.25 140.953 10.25 134.28C10.25 126.307 11.3767 118.897 13.63 112.05C15.97 105.203 19.4367 99.7 24.03 95.54C28.71 91.38 34.3433 89.3 40.93 89.3C46.4767 89.3 50.8967 91.0333 54.19 94.5C57.4833 97.88 59.6933 101.997 60.82 106.85C61.7733 102.083 63.8967 97.9667 67.19 94.5C70.57 91.0333 74.99 89.3 80.45 89.3C86.95 89.3 92.4967 91.3367 97.09 95.41C101.77 99.3967 105.323 104.987 107.75 112.18C110.263 119.373 111.52 127.693 111.52 137.14C111.52 143.293 110.653 149.663 108.92 156.25C107.187 162.75 104.76 168.167 101.64 172.5C98.52 176.833 94.9667 179 90.98 179C87.34 179 84.5667 178.09 82.66 176.27C80.7533 174.45 79.8 171.46 79.8 167.3C79.8 165.393 80.1467 161.84 80.84 156.64C81.5333 151.093 81.88 147.107 81.88 144.68C81.88 139.047 80.3633 136.23 77.33 136.23C75.77 136.23 74.7733 137.487 74.34 140C73.9933 142.513 73.7767 146.587 73.69 152.22C73.69 156.467 73.6033 160.02 73.43 162.88C73.2567 165.653 72.8667 168.21 72.26 170.55C71.5667 173.063 70.18 175.1 68.1 176.66C66.1067 178.22 63.5933 179 60.56 179ZM148.124 179C141.711 179 136.034 177.743 131.094 175.23C126.154 172.717 122.297 169.207 119.524 164.7C116.837 160.107 115.494 154.95 115.494 149.23C115.494 143.597 116.837 138.397 119.524 133.63C122.297 128.863 126.111 125.05 130.964 122.19C135.817 119.33 141.321 117.9 147.474 117.9C153.021 117.9 157.917 119.027 162.164 121.28C166.411 123.533 169.661 126.523 171.914 130.25C174.167 133.89 175.294 137.703 175.294 141.69C175.294 148.19 172.824 152.957 167.884 155.99C163.031 158.937 157.224 160.41 150.464 160.41C145.957 160.41 142.144 159.847 139.024 158.72C141.624 162.967 145.914 165.09 151.894 165.09C154.321 165.09 156.921 164.787 159.694 164.18C160.734 163.92 161.731 163.79 162.684 163.79C164.591 163.79 166.107 164.267 167.234 165.22C168.447 166.173 169.054 167.473 169.054 169.12C169.054 171.807 167.407 174.147 164.114 176.14C160.821 178.047 155.491 179 148.124 179ZM139.414 142.86C140.194 144.073 141.234 144.983 142.534 145.59C143.921 146.11 145.437 146.37 147.084 146.37C148.991 146.37 150.637 145.937 152.024 145.07C153.497 144.203 154.234 143.077 154.234 141.69C154.234 140.13 153.584 138.787 152.284 137.66C151.071 136.533 149.294 135.97 146.954 135.97C144.614 135.97 142.751 136.707 141.364 138.18C140.064 139.567 139.414 141.127 139.414 142.86ZM196.974 178.74C192.64 178.74 189.39 177.137 187.224 173.93C185.057 170.723 183.584 166 182.804 159.76C182.11 153.433 181.764 144.637 181.764 133.37C181.764 122.537 182.024 114.087 182.544 108.02C183.15 101.953 184.537 97.1 186.704 93.46C188.957 89.82 192.424 88 197.104 88C201.784 88 205.207 89.82 207.374 93.46C209.627 97.1 211.014 101.953 211.534 108.02C212.14 114.087 212.444 122.537 212.444 133.37C212.444 144.03 211.967 152.653 211.014 159.24C210.147 165.74 208.587 170.637 206.334 173.93C204.08 177.137 200.96 178.74 196.974 178.74ZM248.922 179.13C242.682 179.217 237.092 177.917 232.152 175.23C227.299 172.543 223.485 168.86 220.712 164.18C218.025 159.413 216.595 154.127 216.422 148.32C216.335 142.513 217.679 137.313 220.452 132.72C223.225 128.127 227.082 124.487 232.022 121.8C237.049 119.113 242.682 117.77 248.922 117.77C254.989 117.77 260.449 119.07 265.302 121.67C270.242 124.27 274.142 127.91 277.002 132.59C279.862 137.27 281.379 142.513 281.552 148.32C281.639 153.953 280.295 159.11 277.522 163.79C274.749 168.383 270.849 172.067 265.822 174.84C260.882 177.613 255.249 179.043 248.922 179.13ZM249.312 160.15C251.652 160.15 253.689 159.24 255.422 157.42C257.155 155.6 258.022 153.477 258.022 151.05C258.022 148.623 257.155 146.543 255.422 144.81C253.689 142.99 251.652 142.08 249.312 142.08C246.972 142.08 244.935 142.99 243.202 144.81C241.469 146.543 240.602 148.623 240.602 151.05C240.602 153.477 241.469 155.6 243.202 157.42C244.935 159.24 246.972 160.15 249.312 160.15ZM387.683 198.24C383.003 198.24 379.103 197.33 375.983 195.51C372.863 193.69 371.303 191.003 371.303 187.45C371.303 184.59 372.646 182.337 375.333 180.69C378.019 179.043 381.183 178.307 384.823 178.48C388.636 178.653 391.583 178.48 393.663 177.96C395.829 177.44 397.476 176.487 398.603 175.1C390.629 175.1 384.259 173.973 379.493 171.72C374.726 169.38 371.259 165.783 369.093 160.93C367.013 155.99 365.973 149.49 365.973 141.43C365.973 134.497 367.013 128.907 369.093 124.66C371.259 120.327 374.639 118.16 379.233 118.16C383.306 118.16 386.296 119.33 388.203 121.67C390.196 123.923 391.193 126.87 391.193 130.51L391.063 136.23C390.976 137.357 390.933 139.003 390.933 141.17C390.933 145.33 391.453 148.493 392.493 150.66C393.533 152.74 395.613 153.78 398.733 153.78C401.853 153.78 403.933 152.74 404.973 150.66C406.013 148.493 406.533 145.373 406.533 141.3C406.533 139.133 406.489 137.487 406.403 136.36L406.273 130.77C406.273 126.87 407.226 123.793 409.133 121.54C411.126 119.287 414.159 118.16 418.233 118.16C422.826 118.16 426.206 120.327 428.373 124.66C430.539 128.993 431.623 134.583 431.623 141.43C431.623 151.657 430.149 161.06 427.203 169.64C424.343 178.133 419.619 185.023 413.033 190.31C406.533 195.597 398.083 198.24 387.683 198.24Z"/>
</mask>
<path d="M60.56 179C57.6133 179 55.1433 178.263 53.15 176.79C51.2433 175.23 49.9 173.15 49.12 170.55C48.4267 168.123 47.9933 165.48 47.82 162.62C47.7333 159.76 47.69 155.73 47.69 150.53C47.69 145.677 47.4733 142.08 47.04 139.74C46.6933 137.4 45.7833 136.23 44.31 136.23C42.5767 136.23 41.3633 137.01 40.67 138.57C39.9767 140.043 39.63 142.167 39.63 144.94C39.63 147.453 39.9767 151.397 40.67 156.77C40.7567 157.81 40.93 159.457 41.19 161.71C41.45 163.963 41.58 165.827 41.58 167.3C41.58 171.46 40.6267 174.407 38.72 176.14C36.9 177.873 34.2133 178.74 30.66 178.74C26.4133 178.74 22.73 176.443 19.61 171.85C16.49 167.257 14.15 161.537 12.59 154.69C11.03 147.757 10.25 140.953 10.25 134.28C10.25 126.307 11.3767 118.897 13.63 112.05C15.97 105.203 19.4367 99.7 24.03 95.54C28.71 91.38 34.3433 89.3 40.93 89.3C46.4767 89.3 50.8967 91.0333 54.19 94.5C57.4833 97.88 59.6933 101.997 60.82 106.85C61.7733 102.083 63.8967 97.9667 67.19 94.5C70.57 91.0333 74.99 89.3 80.45 89.3C86.95 89.3 92.4967 91.3367 97.09 95.41C101.77 99.3967 105.323 104.987 107.75 112.18C110.263 119.373 111.52 127.693 111.52 137.14C111.52 143.293 110.653 149.663 108.92 156.25C107.187 162.75 104.76 168.167 101.64 172.5C98.52 176.833 94.9667 179 90.98 179C87.34 179 84.5667 178.09 82.66 176.27C80.7533 174.45 79.8 171.46 79.8 167.3C79.8 165.393 80.1467 161.84 80.84 156.64C81.5333 151.093 81.88 147.107 81.88 144.68C81.88 139.047 80.3633 136.23 77.33 136.23C75.77 136.23 74.7733 137.487 74.34 140C73.9933 142.513 73.7767 146.587 73.69 152.22C73.69 156.467 73.6033 160.02 73.43 162.88C73.2567 165.653 72.8667 168.21 72.26 170.55C71.5667 173.063 70.18 175.1 68.1 176.66C66.1067 178.22 63.5933 179 60.56 179ZM148.124 179C141.711 179 136.034 177.743 131.094 175.23C126.154 172.717 122.297 169.207 119.524 164.7C116.837 160.107 115.494 154.95 115.494 149.23C115.494 143.597 116.837 138.397 119.524 133.63C122.297 128.863 126.111 125.05 130.964 122.19C135.817 119.33 141.321 117.9 147.474 117.9C153.021 117.9 157.917 119.027 162.164 121.28C166.411 123.533 169.661 126.523 171.914 130.25C174.167 133.89 175.294 137.703 175.294 141.69C175.294 148.19 172.824 152.957 167.884 155.99C163.031 158.937 157.224 160.41 150.464 160.41C145.957 160.41 142.144 159.847 139.024 158.72C141.624 162.967 145.914 165.09 151.894 165.09C154.321 165.09 156.921 164.787 159.694 164.18C160.734 163.92 161.731 163.79 162.684 163.79C164.591 163.79 166.107 164.267 167.234 165.22C168.447 166.173 169.054 167.473 169.054 169.12C169.054 171.807 167.407 174.147 164.114 176.14C160.821 178.047 155.491 179 148.124 179ZM139.414 142.86C140.194 144.073 141.234 144.983 142.534 145.59C143.921 146.11 145.437 146.37 147.084 146.37C148.991 146.37 150.637 145.937 152.024 145.07C153.497 144.203 154.234 143.077 154.234 141.69C154.234 140.13 153.584 138.787 152.284 137.66C151.071 136.533 149.294 135.97 146.954 135.97C144.614 135.97 142.751 136.707 141.364 138.18C140.064 139.567 139.414 141.127 139.414 142.86ZM196.974 178.74C192.64 178.74 189.39 177.137 187.224 173.93C185.057 170.723 183.584 166 182.804 159.76C182.11 153.433 181.764 144.637 181.764 133.37C181.764 122.537 182.024 114.087 182.544 108.02C183.15 101.953 184.537 97.1 186.704 93.46C188.957 89.82 192.424 88 197.104 88C201.784 88 205.207 89.82 207.374 93.46C209.627 97.1 211.014 101.953 211.534 108.02C212.14 114.087 212.444 122.537 212.444 133.37C212.444 144.03 211.967 152.653 211.014 159.24C210.147 165.74 208.587 170.637 206.334 173.93C204.08 177.137 200.96 178.74 196.974 178.74ZM248.922 179.13C242.682 179.217 237.092 177.917 232.152 175.23C227.299 172.543 223.485 168.86 220.712 164.18C218.025 159.413 216.595 154.127 216.422 148.32C216.335 142.513 217.679 137.313 220.452 132.72C223.225 128.127 227.082 124.487 232.022 121.8C237.049 119.113 242.682 117.77 248.922 117.77C254.989 117.77 260.449 119.07 265.302 121.67C270.242 124.27 274.142 127.91 277.002 132.59C279.862 137.27 281.379 142.513 281.552 148.32C281.639 153.953 280.295 159.11 277.522 163.79C274.749 168.383 270.849 172.067 265.822 174.84C260.882 177.613 255.249 179.043 248.922 179.13ZM249.312 160.15C251.652 160.15 253.689 159.24 255.422 157.42C257.155 155.6 258.022 153.477 258.022 151.05C258.022 148.623 257.155 146.543 255.422 144.81C253.689 142.99 251.652 142.08 249.312 142.08C246.972 142.08 244.935 142.99 243.202 144.81C241.469 146.543 240.602 148.623 240.602 151.05C240.602 153.477 241.469 155.6 243.202 157.42C244.935 159.24 246.972 160.15 249.312 160.15ZM387.683 198.24C383.003 198.24 379.103 197.33 375.983 195.51C372.863 193.69 371.303 191.003 371.303 187.45C371.303 184.59 372.646 182.337 375.333 180.69C378.019 179.043 381.183 178.307 384.823 178.48C388.636 178.653 391.583 178.48 393.663 177.96C395.829 177.44 397.476 176.487 398.603 175.1C390.629 175.1 384.259 173.973 379.493 171.72C374.726 169.38 371.259 165.783 369.093 160.93C367.013 155.99 365.973 149.49 365.973 141.43C365.973 134.497 367.013 128.907 369.093 124.66C371.259 120.327 374.639 118.16 379.233 118.16C383.306 118.16 386.296 119.33 388.203 121.67C390.196 123.923 391.193 126.87 391.193 130.51L391.063 136.23C390.976 137.357 390.933 139.003 390.933 141.17C390.933 145.33 391.453 148.493 392.493 150.66C393.533 152.74 395.613 153.78 398.733 153.78C401.853 153.78 403.933 152.74 404.973 150.66C406.013 148.493 406.533 145.373 406.533 141.3C406.533 139.133 406.489 137.487 406.403 136.36L406.273 130.77C406.273 126.87 407.226 123.793 409.133 121.54C411.126 119.287 414.159 118.16 418.233 118.16C422.826 118.16 426.206 120.327 428.373 124.66C430.539 128.993 431.623 134.583 431.623 141.43C431.623 151.657 430.149 161.06 427.203 169.64C424.343 178.133 419.619 185.023 413.033 190.31C406.533 195.597 398.083 198.24 387.683 198.24Z" fill="white"/>
<path d="M53.15 176.79L46.8176 184.53L47.0081 184.685L47.2061 184.832L53.15 176.79ZM49.12 170.55L39.5048 173.297L39.5228 173.36L39.5417 173.423L49.12 170.55ZM47.82 162.62L37.8246 162.923L37.8292 163.074L37.8383 163.225L47.82 162.62ZM47.04 139.74L37.148 141.205L37.1744 141.384L37.2072 141.561L47.04 139.74ZM40.67 138.57L49.7182 142.828L49.7642 142.73L49.8081 142.631L40.67 138.57ZM40.67 156.77L50.6355 155.94L50.6167 155.714L50.5878 155.49L40.67 156.77ZM41.19 161.71L31.2559 162.856L41.19 161.71ZM38.72 176.14L31.9933 168.741L31.9074 168.819L31.8235 168.899L38.72 176.14ZM19.61 171.85L27.8822 166.231L19.61 171.85ZM12.59 154.69L2.8339 156.885L2.83688 156.898L2.83989 156.912L12.59 154.69ZM13.63 112.05L4.1674 108.816L4.149 108.87L4.13121 108.924L13.63 112.05ZM24.03 95.54L17.3864 88.0659L17.3516 88.0968L17.3172 88.128L24.03 95.54ZM54.19 94.5L46.94 101.387L46.9836 101.433L47.0277 101.479L54.19 94.5ZM60.82 106.85L51.079 109.111L70.6258 108.811L60.82 106.85ZM67.19 94.5L60.03 87.519L59.9847 87.5655L59.94 87.6125L67.19 94.5ZM97.09 95.41L90.4551 102.892L90.5296 102.958L90.6053 103.022L97.09 95.41ZM107.75 112.18L98.2747 115.377L98.2919 115.428L98.3096 115.478L107.75 112.18ZM108.92 156.25L118.582 158.827L118.587 158.811L118.591 158.795L108.92 156.25ZM80.84 156.64L90.7523 157.962L90.7577 157.921L90.7628 157.88L80.84 156.64ZM74.34 140L64.4854 138.301L64.4568 138.467L64.4338 138.634L74.34 140ZM73.69 152.22L63.6912 152.066L63.69 152.143V152.22H73.69ZM73.43 162.88L83.4105 163.504L83.4111 163.494L83.4117 163.485L73.43 162.88ZM72.26 170.55L81.8999 173.209L81.9205 173.135L81.94 173.06L72.26 170.55ZM68.1 176.66L62.1 168.66L62.0178 168.722L61.9369 168.785L68.1 176.66ZM60.56 179V169C59.9187 169 59.5414 168.92 59.3556 168.865C59.1859 168.814 59.1221 168.769 59.0939 168.748L53.15 176.79L47.2061 184.832C51.227 187.804 55.8895 189 60.56 189V179ZM53.15 176.79L59.4824 169.05C59.2745 168.88 58.9663 168.57 58.6983 167.677L49.12 170.55L39.5417 173.423C40.8337 177.73 43.2121 181.58 46.8176 184.53L53.15 176.79ZM49.12 170.55L58.7352 167.803C58.2662 166.161 57.9369 164.245 57.8017 162.015L47.82 162.62L37.8383 163.225C38.0498 166.715 38.5871 170.085 39.5048 173.297L49.12 170.55ZM47.82 162.62L57.8154 162.317C57.7333 159.608 57.69 155.696 57.69 150.53H47.69H37.69C37.69 155.764 37.7333 159.912 37.8246 162.923L47.82 162.62ZM47.69 150.53H57.69C57.69 145.558 57.4808 141.202 56.8728 137.919L47.04 139.74L37.2072 141.561C37.4659 142.958 37.69 145.795 37.69 150.53H47.69ZM47.04 139.74L56.932 138.275C56.6419 136.316 55.9549 133.493 53.991 130.968C51.6549 127.964 48.1544 126.23 44.31 126.23V136.23V146.23C43.3203 146.23 42.1209 146.024 40.9026 145.426C39.6863 144.829 38.7987 144.012 38.204 143.247C37.1501 141.892 37.0915 140.824 37.148 141.205L47.04 139.74ZM44.31 136.23V126.23C41.9167 126.23 39.212 126.783 36.6924 128.403C34.1626 130.03 32.523 132.279 31.5319 134.509L40.67 138.57L49.8081 142.631C49.5103 143.301 48.824 144.38 47.5076 145.227C46.2013 146.067 44.97 146.23 44.31 146.23V136.23ZM40.67 138.57L31.6218 134.312C30.0079 137.742 29.63 141.591 29.63 144.94H39.63H49.63C49.63 143.947 49.6936 143.281 49.7593 142.879C49.828 142.458 49.87 142.505 49.7182 142.828L40.67 138.57ZM39.63 144.94H29.63C29.63 148.138 30.0517 152.621 30.7522 158.05L40.67 156.77L50.5878 155.49C49.9016 150.173 49.63 146.769 49.63 144.94H39.63ZM40.67 156.77L30.7045 157.6C30.8053 158.809 30.9944 160.59 31.2559 162.856L41.19 161.71L51.1241 160.564C50.8656 158.323 50.708 156.811 50.6355 155.94L40.67 156.77ZM41.19 161.71L31.2559 162.856C31.4927 164.908 31.58 166.356 31.58 167.3H41.58H51.58C51.58 165.298 51.4073 163.018 51.1241 160.564L41.19 161.71ZM41.58 167.3H31.58C31.58 168.669 31.4166 169.348 31.3506 169.552C31.3022 169.701 31.419 169.263 31.9933 168.741L38.72 176.14L45.4467 183.539C50.4229 179.016 51.58 172.593 51.58 167.3H41.58ZM38.72 176.14L31.8235 168.899C32.1292 168.607 32.3604 168.544 32.27 168.573C32.1367 168.616 31.6515 168.74 30.66 168.74V178.74V188.74C35.7146 188.74 41.2866 187.505 45.6166 183.381L38.72 176.14ZM30.66 178.74V168.74C30.4505 168.74 30.295 168.714 30.0035 168.532C29.6255 168.296 28.8694 167.685 27.8822 166.231L19.61 171.85L11.3378 177.469C15.6826 183.865 22.1088 188.74 30.66 188.74V178.74ZM19.61 171.85L27.8822 166.231C25.6202 162.901 23.6936 158.409 22.3401 152.468L12.59 154.69L2.83989 156.912C4.60637 164.664 7.3598 171.612 11.3378 177.469L19.61 171.85ZM12.59 154.69L22.3461 152.495C20.9377 146.236 20.25 140.169 20.25 134.28H10.25H0.25C0.25 141.738 1.12225 149.278 2.8339 156.885L12.59 154.69ZM10.25 134.28H20.25C20.25 127.257 21.2407 120.913 23.1288 115.176L13.63 112.05L4.13121 108.924C1.5126 116.88 0.25 125.356 0.25 134.28H10.25ZM13.63 112.05L23.0926 115.284C24.977 109.77 27.6011 105.797 30.7428 102.952L24.03 95.54L17.3172 88.128C11.2723 93.6026 6.96295 100.636 4.1674 108.816L13.63 112.05ZM24.03 95.54L30.6736 103.014C33.4219 100.571 36.6535 99.3 40.93 99.3V89.3V79.3C32.0331 79.3 23.9981 82.1888 17.3864 88.0659L24.03 95.54ZM40.93 89.3V99.3C44.2138 99.3 45.8405 100.23 46.94 101.387L54.19 94.5L61.44 87.6125C55.9528 81.8365 48.7395 79.3 40.93 79.3V89.3ZM54.19 94.5L47.0277 101.479C48.9748 103.477 50.3412 105.933 51.079 109.111L60.82 106.85L70.561 104.589C69.0455 98.0605 65.9918 92.283 61.3523 87.5213L54.19 94.5ZM60.82 106.85L70.6258 108.811C71.2156 105.862 72.469 103.462 74.44 101.387L67.19 94.5L59.94 87.6125C55.3243 92.4711 52.3311 98.3043 51.0142 104.889L60.82 106.85ZM67.19 94.5L74.35 101.481C75.6 100.199 77.309 99.3 80.45 99.3V89.3V79.3C72.671 79.3 65.54 81.8677 60.03 87.519L67.19 94.5ZM80.45 89.3V99.3C84.6616 99.3 87.8051 100.542 90.4551 102.892L97.09 95.41L103.725 87.9281C97.1882 82.1315 89.2384 79.3 80.45 79.3V89.3ZM97.09 95.41L90.6053 103.022C93.6171 105.588 96.2915 109.498 98.2747 115.377L107.75 112.18L117.225 108.983C114.355 100.476 109.923 93.2054 103.575 87.7976L97.09 95.41ZM107.75 112.18L98.3096 115.478C100.376 121.392 101.52 128.558 101.52 137.14H111.52H121.52C121.52 126.829 120.151 117.355 117.19 108.882L107.75 112.18ZM111.52 137.14H101.52C101.52 142.348 100.787 147.862 99.2493 153.705L108.92 156.25L118.591 158.795C120.52 151.465 121.52 144.238 121.52 137.14H111.52ZM108.92 156.25L99.2577 153.673C97.7593 159.292 95.7772 163.528 93.5247 166.657L101.64 172.5L109.755 178.343C113.743 172.805 116.614 166.208 118.582 158.827L108.92 156.25ZM101.64 172.5L93.5247 166.657C92.5332 168.034 91.7925 168.615 91.4289 168.837C91.1483 169.008 91.0539 169 90.98 169V179V189C99.2126 189 105.452 184.32 109.755 178.343L101.64 172.5ZM90.98 179V169C89.9687 169 89.455 168.871 89.2877 168.816C89.163 168.775 89.3294 168.812 89.5648 169.036L82.66 176.27L75.7552 183.504C80.1337 187.683 85.7607 189 90.98 189V179ZM82.66 176.27L89.5648 169.036C90.0348 169.485 90.1071 169.827 90.0424 169.625C89.9619 169.372 89.8 168.663 89.8 167.3H79.8H69.8C69.8 172.652 70.9817 178.947 75.7552 183.504L82.66 176.27ZM79.8 167.3H89.8C89.8 166.153 90.0499 163.23 90.7523 157.962L80.84 156.64L70.9277 155.318C70.2434 160.451 69.8 164.634 69.8 167.3H79.8ZM80.84 156.64L90.7628 157.88C91.4588 152.312 91.88 147.785 91.88 144.68H81.88H71.88C71.88 146.429 71.6078 149.875 70.9172 155.4L80.84 156.64ZM81.88 144.68H91.88C91.88 141.293 91.4798 137.191 89.5472 133.602C88.5003 131.657 86.9095 129.695 84.5842 128.255C82.2308 126.799 79.6932 126.23 77.33 126.23V136.23V146.23C76.4835 146.23 75.273 146.013 74.0571 145.261C72.8693 144.525 72.2264 143.619 71.9378 143.083C71.6779 142.601 71.6904 142.402 71.7529 142.75C71.8113 143.075 71.88 143.692 71.88 144.68H81.88ZM77.33 136.23V126.23C73.3987 126.23 69.9106 128.017 67.5775 130.959C65.5987 133.454 64.8354 136.271 64.4854 138.301L74.34 140L84.1946 141.699C84.2779 141.216 84.2297 142.148 83.2475 143.386C82.6912 144.088 81.8482 144.864 80.6768 145.44C79.497 146.02 78.3216 146.23 77.33 146.23V136.23ZM74.34 140L64.4338 138.634C63.9975 141.796 63.7785 146.394 63.6912 152.066L73.69 152.22L83.6888 152.374C83.7749 146.779 83.9891 143.23 84.2462 141.366L74.34 140ZM73.69 152.22H63.69C63.69 156.351 63.6052 159.687 63.4483 162.275L73.43 162.88L83.4117 163.485C83.6015 160.353 83.69 156.582 83.69 152.22H73.69ZM73.43 162.88L63.4495 162.256C63.3102 164.485 63.0049 166.401 62.58 168.04L72.26 170.55L81.94 173.06C82.7284 170.019 83.2032 166.822 83.4105 163.504L73.43 162.88ZM72.26 170.55L62.6201 167.891C62.5137 168.276 62.4037 168.432 62.1 168.66L68.1 176.66L74.1 184.66C77.9563 181.768 80.6197 177.85 81.8999 173.209L72.26 170.55ZM68.1 176.66L61.9369 168.785C61.9338 168.787 61.9001 168.82 61.756 168.864C61.5927 168.915 61.2218 169 60.56 169V179V189C65.369 189 70.1806 187.73 74.2631 184.535L68.1 176.66ZM131.094 175.23L135.629 166.317L131.094 175.23ZM119.524 164.7L110.892 169.749L110.949 169.846L111.008 169.941L119.524 164.7ZM119.524 133.63L110.881 128.601L110.846 128.66L110.813 128.72L119.524 133.63ZM130.964 122.19L136.041 130.805L130.964 122.19ZM162.164 121.28L166.851 112.447L162.164 121.28ZM171.914 130.25L163.357 135.424L163.384 135.469L163.411 135.514L171.914 130.25ZM167.884 155.99L173.074 164.538L173.095 164.525L173.117 164.512L167.884 155.99ZM139.024 158.72L142.421 149.314L115.614 139.634L130.496 163.942L139.024 158.72ZM159.694 164.18L161.831 173.949L161.976 173.917L162.119 173.881L159.694 164.18ZM167.234 165.22L160.775 172.854L160.913 172.971L161.056 173.083L167.234 165.22ZM164.114 176.14L169.125 184.794L169.209 184.745L169.292 184.695L164.114 176.14ZM139.414 142.86H129.414V145.797L131.002 148.268L139.414 142.86ZM142.534 145.59L138.305 154.652L138.658 154.817L139.023 154.953L142.534 145.59ZM152.024 145.07L146.954 136.451L146.838 136.519L146.724 136.59L152.024 145.07ZM152.284 137.66L145.48 144.988L145.605 145.105L145.735 145.217L152.284 137.66ZM141.364 138.18L134.082 131.326L134.075 131.333L134.069 131.341L141.364 138.18ZM148.124 179V169C143.039 169 138.958 168.011 135.629 166.317L131.094 175.23L126.56 184.143C133.11 187.475 140.383 189 148.124 189V179ZM131.094 175.23L135.629 166.317C132.247 164.597 129.803 162.323 128.041 159.459L119.524 164.7L111.008 169.941C114.792 176.091 120.061 180.837 126.56 184.143L131.094 175.23ZM119.524 164.7L128.156 159.651C126.432 156.704 125.494 153.313 125.494 149.23H115.494H105.494C105.494 156.587 107.243 163.509 110.892 169.749L119.524 164.7ZM115.494 149.23H125.494C125.494 145.264 126.419 141.763 128.236 138.54L119.524 133.63L110.813 128.72C107.256 135.031 105.494 141.929 105.494 149.23H115.494ZM119.524 133.63L128.168 138.659C130.06 135.407 132.631 132.815 136.041 130.805L130.964 122.19L125.887 113.575C119.591 117.285 114.535 122.32 110.881 128.601L119.524 133.63ZM130.964 122.19L136.041 130.805C139.216 128.934 142.936 127.9 147.474 127.9V117.9V107.9C139.705 107.9 132.419 109.726 125.887 113.575L130.964 122.19ZM147.474 117.9V127.9C151.639 127.9 154.882 128.736 157.477 130.113L162.164 121.28L166.851 112.447C160.953 109.317 154.402 107.9 147.474 107.9V117.9ZM162.164 121.28L157.477 130.113C160.297 131.61 162.134 133.402 163.357 135.424L171.914 130.25L180.471 125.076C177.187 119.644 172.524 115.457 166.851 112.447L162.164 121.28ZM171.914 130.25L163.411 135.514C164.761 137.694 165.294 139.701 165.294 141.69H175.294H185.294C185.294 135.706 183.574 130.086 180.417 124.986L171.914 130.25ZM175.294 141.69H165.294C165.294 145.216 164.225 146.502 162.652 147.468L167.884 155.99L173.117 164.512C181.423 159.411 185.294 151.164 185.294 141.69H175.294ZM167.884 155.99L162.694 147.442C159.681 149.272 155.746 150.41 150.464 150.41V160.41V170.41C158.703 170.41 166.381 168.602 173.074 164.538L167.884 155.99ZM150.464 160.41V150.41C146.728 150.41 144.138 149.935 142.421 149.314L139.024 158.72L135.628 168.126C140.15 169.759 145.187 170.41 150.464 170.41V160.41ZM139.024 158.72L130.496 163.942C135.302 171.792 143.25 175.09 151.894 175.09V165.09V155.09C148.578 155.09 147.946 154.141 147.553 153.498L139.024 158.72ZM151.894 165.09V175.09C155.148 175.09 158.471 174.684 161.831 173.949L159.694 164.18L157.557 154.411C155.371 154.889 153.493 155.09 151.894 155.09V165.09ZM159.694 164.18L162.119 173.881C162.463 173.796 162.642 173.79 162.684 173.79V163.79V153.79C160.819 153.79 159.005 154.044 157.269 154.479L159.694 164.18ZM162.684 163.79V173.79C162.817 173.79 162.636 173.808 162.253 173.687C161.842 173.558 161.303 173.301 160.775 172.854L167.234 165.22L173.694 157.586C170.288 154.705 166.252 153.79 162.684 153.79V163.79ZM167.234 165.22L161.056 173.083C160.525 172.666 159.946 172.016 159.537 171.139C159.138 170.282 159.054 169.542 159.054 169.12H169.054H179.054C179.054 164.643 177.22 160.348 173.412 157.357L167.234 165.22ZM169.054 169.12H159.054C159.054 168.751 159.114 168.35 159.242 167.957C159.369 167.57 159.529 167.294 159.641 167.135C159.838 166.856 159.786 167.071 158.936 167.585L164.114 176.14L169.292 184.695C174.156 181.751 179.054 176.697 179.054 169.12H169.054ZM164.114 176.14L159.104 167.486C158.19 168.015 155.096 169 148.124 169V179V189C155.885 189 163.451 188.079 169.125 184.794L164.114 176.14ZM139.414 142.86L131.002 148.268C132.798 151.06 135.284 153.242 138.305 154.652L142.534 145.59L146.763 136.528C146.934 136.608 147.148 136.738 147.364 136.927C147.58 137.115 147.732 137.306 147.826 137.452L139.414 142.86ZM142.534 145.59L139.023 154.953C141.651 155.939 144.372 156.37 147.084 156.37V146.37V136.37C146.503 136.37 146.191 136.281 146.045 136.227L142.534 145.59ZM147.084 146.37V156.37C150.549 156.37 154.1 155.565 157.324 153.55L152.024 145.07L146.724 136.59C146.919 136.468 147.095 136.403 147.204 136.374C147.304 136.348 147.28 136.37 147.084 136.37V146.37ZM152.024 145.07L157.094 153.689C160.793 151.514 164.234 147.487 164.234 141.69H154.234H144.234C144.234 140.501 144.583 139.217 145.312 138.103C145.983 137.077 146.711 136.594 146.954 136.451L152.024 145.07ZM154.234 141.69H164.234C164.234 136.911 162.072 132.91 158.833 130.103L152.284 137.66L145.735 145.217C145.514 145.026 145.095 144.592 144.745 143.868C144.383 143.12 144.234 142.348 144.234 141.69H154.234ZM152.284 137.66L159.089 130.332C155.382 126.89 150.775 125.97 146.954 125.97V135.97V145.97C147.348 145.97 147.321 146.021 147.019 145.925C146.677 145.816 146.084 145.549 145.48 144.988L152.284 137.66ZM146.954 135.97V125.97C142.329 125.97 137.659 127.526 134.082 131.326L141.364 138.18L148.646 145.034C148.342 145.357 147.927 145.645 147.478 145.822C147.06 145.987 146.835 145.97 146.954 145.97V135.97ZM141.364 138.18L134.069 131.341C131.214 134.386 129.414 138.331 129.414 142.86H139.414H149.414C149.414 143.279 149.328 143.766 149.132 144.236C148.943 144.691 148.727 144.947 148.66 145.019L141.364 138.18ZM187.224 173.93L178.938 179.529H178.938L187.224 173.93ZM182.804 159.76L172.863 160.849L172.871 160.925L172.881 161L182.804 159.76ZM182.544 108.02L172.593 107.025L172.586 107.095L172.58 107.166L182.544 108.02ZM186.704 93.46L178.201 88.1964L178.155 88.2704L178.111 88.3452L186.704 93.46ZM207.374 93.46L198.781 98.5748L198.825 98.6496L198.871 98.7235L207.374 93.46ZM211.534 108.02L201.57 108.874L201.576 108.945L201.583 109.015L211.534 108.02ZM211.014 159.24L201.117 157.808L201.109 157.863L201.101 157.918L211.014 159.24ZM206.334 173.93L214.516 179.679L214.551 179.628L214.587 179.577L206.334 173.93ZM196.974 178.74V168.74C196.044 168.74 195.715 168.572 195.71 168.569C195.699 168.564 195.7 168.564 195.692 168.557C195.681 168.547 195.615 168.488 195.51 168.331L187.224 173.93L178.938 179.529C183.21 185.852 189.784 188.74 196.974 188.74V178.74ZM187.224 173.93L195.51 168.331C194.609 166.998 193.42 164.064 192.726 158.52L182.804 159.76L172.881 161C173.748 167.936 175.505 174.449 178.938 179.529L187.224 173.93ZM182.804 159.76L192.744 158.671C192.109 152.879 191.764 144.504 191.764 133.37H181.764H171.764C171.764 144.77 172.111 153.987 172.863 160.849L182.804 159.76ZM181.764 133.37H191.764C191.764 122.639 192.023 114.52 192.507 108.874L182.544 108.02L172.58 107.166C172.024 113.654 171.764 122.434 171.764 133.37H181.764ZM182.544 108.02L192.494 109.015C193.014 103.812 194.133 100.53 195.297 98.5748L186.704 93.46L178.111 88.3452C174.941 93.6695 173.286 100.094 172.593 107.025L182.544 108.02ZM186.704 93.46L195.206 98.7235C195.359 98.4762 195.473 98.3549 195.526 98.3048C195.575 98.2584 195.607 98.2372 195.642 98.219C195.687 98.1955 196.069 98 197.104 98V88V78C189.347 78 182.472 81.2972 178.201 88.1964L186.704 93.46ZM197.104 88V98C197.628 98 197.977 98.0511 198.187 98.0982C198.389 98.1437 198.474 98.1879 198.487 98.1947C198.496 98.1995 198.502 98.2022 198.526 98.225C198.553 98.2518 198.646 98.349 198.781 98.5748L207.374 93.46L215.967 88.3452C211.78 81.3124 204.864 78 197.104 78V88ZM207.374 93.46L198.871 98.7235C200.024 100.586 201.131 103.754 201.57 108.874L211.534 108.02L221.497 107.166C220.896 100.153 219.23 93.6138 215.876 88.1964L207.374 93.46ZM211.534 108.02L201.583 109.015C202.141 114.592 202.444 122.657 202.444 133.37H212.444H222.444C222.444 122.417 222.14 113.582 221.484 107.025L211.534 108.02ZM212.444 133.37H202.444C202.444 143.799 201.973 151.89 201.117 157.808L211.014 159.24L220.911 160.672C221.961 153.417 222.444 144.261 222.444 133.37H212.444ZM211.014 159.24L201.101 157.918C200.324 163.748 199.057 166.857 198.081 168.283L206.334 173.93L214.587 179.577C218.117 174.417 219.97 167.732 220.926 160.562L211.014 159.24ZM206.334 173.93L198.152 168.181C197.989 168.413 197.869 168.532 197.811 168.584C197.757 168.632 197.734 168.643 197.733 168.643C197.732 168.644 197.697 168.663 197.6 168.685C197.499 168.708 197.299 168.74 196.974 168.74V178.74V188.74C204.15 188.74 210.352 185.605 214.516 179.679L206.334 173.93ZM248.922 179.13L248.785 169.131L248.783 169.131L248.922 179.13ZM232.152 175.23L227.309 183.979L227.341 183.997L227.374 184.015L232.152 175.23ZM220.712 164.18L212 169.09L212.054 169.185L212.109 169.278L220.712 164.18ZM216.422 148.32L206.423 148.469L206.424 148.544L206.426 148.618L216.422 148.32ZM220.452 132.72L211.891 127.551L220.452 132.72ZM232.022 121.8L227.308 112.981L227.276 112.998L227.244 113.015L232.022 121.8ZM265.302 121.67L260.58 130.485L260.612 130.502L260.644 130.519L265.302 121.67ZM277.002 132.59L268.469 137.805L277.002 132.59ZM281.552 148.32L291.551 148.166L291.55 148.094L291.547 148.022L281.552 148.32ZM277.522 163.79L286.083 168.959L286.104 168.923L286.125 168.888L277.522 163.79ZM265.822 174.84L260.991 166.084L260.959 166.102L260.927 166.12L265.822 174.84ZM255.422 144.81L248.18 151.707L248.265 151.795L248.351 151.881L255.422 144.81ZM243.202 144.81L250.273 151.881L250.359 151.795L250.443 151.707L243.202 144.81ZM243.202 157.42L235.96 164.317V164.317L243.202 157.42ZM248.922 179.13L248.783 169.131C244.066 169.196 240.201 168.225 236.93 166.445L232.152 175.23L227.374 184.015C233.982 187.609 241.297 189.237 249.061 189.129L248.922 179.13ZM232.152 175.23L236.995 166.481C233.665 164.638 231.163 162.201 229.315 159.082L220.712 164.18L212.109 169.278C215.807 175.519 220.932 180.449 227.309 183.979L232.152 175.23ZM220.712 164.18L229.423 159.27C227.581 156.001 226.546 152.313 226.417 148.022L216.422 148.32L206.426 148.618C206.645 155.941 208.47 162.826 212 169.09L220.712 164.18ZM216.422 148.32L226.421 148.171C226.36 144.076 227.287 140.747 229.013 137.889L220.452 132.72L211.891 127.551C208.07 133.879 206.311 140.95 206.423 148.469L216.422 148.32ZM220.452 132.72L229.013 137.889C230.823 134.889 233.341 132.466 236.8 130.585L232.022 121.8L227.244 113.015C220.823 116.508 215.627 121.364 211.891 127.551L220.452 132.72ZM232.022 121.8L236.736 130.619C240.178 128.78 244.167 127.77 248.922 127.77V117.77V107.77C241.197 107.77 233.919 109.447 227.308 112.981L232.022 121.8ZM248.922 117.77V127.77C253.512 127.77 257.323 128.74 260.58 130.485L265.302 121.67L270.024 112.855C263.575 109.4 256.465 107.77 248.922 107.77V117.77ZM265.302 121.67L260.644 130.519C264.018 132.295 266.567 134.692 268.469 137.805L277.002 132.59L285.535 127.375C281.717 121.128 276.465 116.245 269.959 112.821L265.302 121.67ZM277.002 132.59L268.469 137.805C270.368 140.912 271.432 144.443 271.556 148.618L281.552 148.32L291.547 148.022C291.325 140.584 289.355 133.628 285.535 127.375L277.002 132.59ZM281.552 148.32L271.553 148.474C271.612 152.33 270.717 155.659 268.919 158.692L277.522 163.79L286.125 168.888C289.874 162.561 291.665 155.576 291.551 148.166L281.552 148.32ZM277.522 163.79L268.961 158.621C267.158 161.607 264.593 164.097 260.991 166.084L265.822 174.84L270.653 183.596C277.105 180.036 282.339 175.159 286.083 168.959L277.522 163.79ZM265.822 174.84L260.927 166.12C257.605 167.985 253.642 169.064 248.785 169.131L248.922 179.13L249.059 189.129C256.855 189.022 264.159 187.242 270.717 183.56L265.822 174.84ZM249.312 160.15V170.15C254.607 170.15 259.198 167.955 262.663 164.317L255.422 157.42L248.18 150.523C248.099 150.609 248.202 150.477 248.515 150.337C248.843 150.191 249.146 150.15 249.312 150.15V160.15ZM255.422 157.42L262.663 164.317C266.097 160.711 268.022 156.144 268.022 151.05H258.022H248.022C248.022 151.059 248.021 151.019 248.036 150.942C248.051 150.864 248.076 150.774 248.113 150.684C248.15 150.593 248.188 150.529 248.211 150.494C248.233 150.46 248.23 150.471 248.18 150.523L255.422 157.42ZM258.022 151.05H268.022C268.022 145.941 266.08 141.326 262.493 137.739L255.422 144.81L248.351 151.881C248.376 151.906 248.253 151.784 248.141 151.516C248.09 151.394 248.058 151.279 248.039 151.183C248.021 151.09 248.022 151.041 248.022 151.05H258.022ZM255.422 144.81L262.663 137.913C259.198 134.275 254.607 132.08 249.312 132.08V142.08V152.08C249.146 152.08 248.843 152.039 248.515 151.893C248.202 151.753 248.099 151.621 248.18 151.707L255.422 144.81ZM249.312 142.08V132.08C244.017 132.08 239.425 134.275 235.96 137.913L243.202 144.81L250.443 151.707C250.525 151.621 250.421 151.753 250.109 151.893C249.781 152.039 249.477 152.08 249.312 152.08V142.08ZM243.202 144.81L236.131 137.739C232.544 141.326 230.602 145.941 230.602 151.05H240.602H250.602C250.602 151.041 250.602 151.09 250.584 151.183C250.566 151.279 250.534 151.394 250.483 151.516C250.371 151.784 250.248 151.906 250.273 151.881L243.202 144.81ZM240.602 151.05H230.602C230.602 156.144 232.526 160.711 235.96 164.317L243.202 157.42L250.443 150.523C250.394 150.471 250.391 150.46 250.413 150.494C250.436 150.529 250.473 150.593 250.51 150.684C250.547 150.774 250.573 150.864 250.588 150.942C250.602 151.019 250.602 151.059 250.602 151.05H240.602ZM243.202 157.42L235.96 164.317C239.425 167.955 244.017 170.15 249.312 170.15V160.15V150.15C249.477 150.15 249.781 150.191 250.109 150.337C250.421 150.477 250.525 150.609 250.443 150.523L243.202 157.42ZM375.333 180.69L370.107 172.164L375.333 180.69ZM384.823 178.48L384.347 188.469L384.358 188.469L384.369 188.47L384.823 178.48ZM393.663 177.96L391.329 168.236L391.283 168.247L391.237 168.259L393.663 177.96ZM398.603 175.1L406.364 181.406L419.612 165.1H398.603V175.1ZM379.493 171.72L375.086 180.697L375.152 180.729L375.219 180.761L379.493 171.72ZM369.093 160.93L359.876 164.811L359.918 164.909L359.961 165.007L369.093 160.93ZM369.093 124.66L360.148 120.188L360.13 120.225L360.112 120.261L369.093 124.66ZM388.203 121.67L380.45 127.987L380.578 128.144L380.713 128.296L388.203 121.67ZM391.193 130.51L401.19 130.737L401.193 130.624V130.51H391.193ZM391.063 136.23L401.033 136.997L401.054 136.727L401.06 136.457L391.063 136.23ZM392.493 150.66L383.477 154.987L383.512 155.06L383.548 155.132L392.493 150.66ZM404.973 150.66L413.917 155.132L413.953 155.06L413.988 154.987L404.973 150.66ZM406.403 136.36L396.405 136.592L396.412 136.86L396.432 137.127L406.403 136.36ZM406.273 130.77H396.273V130.886L396.275 131.003L406.273 130.77ZM409.133 121.54L401.643 114.914L401.57 114.997L401.499 115.081L409.133 121.54ZM428.373 124.66L419.428 129.132V129.132L428.373 124.66ZM427.203 169.64L417.745 166.392L417.735 166.42L417.726 166.449L427.203 169.64ZM413.033 190.31L406.773 182.511L406.748 182.532L406.723 182.552L413.033 190.31ZM387.683 198.24V188.24C384.262 188.24 382.224 187.574 381.021 186.872L375.983 195.51L370.944 204.148C375.982 207.087 381.744 208.24 387.683 208.24V198.24ZM375.983 195.51L381.021 186.872C380.853 186.774 380.824 186.733 380.872 186.779C380.925 186.831 381.023 186.941 381.121 187.109C381.218 187.277 381.272 187.429 381.297 187.527C381.319 187.618 381.303 187.605 381.303 187.45H371.303H361.303C361.303 194.632 364.815 200.572 370.944 204.148L375.983 195.51ZM371.303 187.45H381.303C381.303 187.523 381.293 187.705 381.226 187.96C381.158 188.22 381.047 188.488 380.9 188.736C380.591 189.253 380.32 189.362 380.558 189.216L375.333 180.69L370.107 172.164C364.816 175.407 361.303 180.707 361.303 187.45H371.303ZM375.333 180.69L380.558 189.216C381.278 188.775 382.389 188.375 384.347 188.469L384.823 178.48L385.298 168.491C379.977 168.238 374.76 169.312 370.107 172.164L375.333 180.69ZM384.823 178.48L384.369 188.47C388.521 188.658 392.606 188.532 396.088 187.661L393.663 177.96L391.237 168.259C390.559 168.428 388.751 168.648 385.277 168.49L384.823 178.48ZM393.663 177.96L395.996 187.684C399.761 186.78 403.54 184.881 406.364 181.406L398.603 175.1L390.842 168.794C391.093 168.484 391.353 168.293 391.512 168.201C391.653 168.119 391.629 168.164 391.329 168.236L393.663 177.96ZM398.603 175.1V165.1C391.419 165.1 386.69 164.061 383.766 162.679L379.493 171.72L375.219 180.761C381.829 183.886 389.84 185.1 398.603 185.1V175.1ZM379.493 171.72L383.899 162.743C381.234 161.435 379.438 159.573 378.224 156.853L369.093 160.93L359.961 165.007C363.08 171.993 368.218 177.325 375.086 180.697L379.493 171.72ZM369.093 160.93L378.309 157.049C376.939 153.796 375.973 148.765 375.973 141.43H365.973H355.973C355.973 150.215 357.086 158.184 359.876 164.811L369.093 160.93ZM365.973 141.43H375.973C375.973 135.366 376.903 131.449 378.073 129.059L369.093 124.66L360.112 120.261C357.123 126.364 355.973 133.628 355.973 141.43H365.973ZM369.093 124.66L378.037 129.132C378.482 128.243 378.762 128.132 378.649 128.204C378.613 128.227 378.594 128.228 378.637 128.216C378.69 128.202 378.872 128.16 379.233 128.16V118.16V108.16C375.306 108.16 371.379 109.108 367.856 111.366C364.364 113.605 361.87 116.744 360.148 120.188L369.093 124.66ZM379.233 118.16V128.16C380.343 128.16 380.818 128.323 380.886 128.35C380.911 128.359 380.85 128.338 380.744 128.262C380.635 128.184 380.532 128.087 380.45 127.987L388.203 121.67L395.955 115.353C391.541 109.936 385.194 108.16 379.233 108.16V118.16ZM388.203 121.67L380.713 128.296C380.765 128.355 381.193 128.774 381.193 130.51H391.193H401.193C401.193 124.966 399.627 119.492 395.693 115.044L388.203 121.67ZM391.193 130.51L381.195 130.283L381.065 136.003L391.063 136.23L401.06 136.457L401.19 130.737L391.193 130.51ZM391.063 136.23L381.092 135.463C380.975 136.98 380.933 138.934 380.933 141.17H390.933H400.933C400.933 139.073 400.977 137.733 401.033 136.997L391.063 136.23ZM390.933 141.17H380.933C380.933 145.885 381.478 150.821 383.477 154.987L392.493 150.66L401.508 146.333C401.51 146.337 401.344 145.976 401.19 145.04C401.04 144.126 400.933 142.857 400.933 141.17H390.933ZM392.493 150.66L383.548 155.132C386.866 161.767 393.335 163.78 398.733 163.78V153.78V143.78C398.219 143.78 398.565 143.686 399.305 144.056C399.694 144.25 400.128 144.544 400.539 144.954C400.949 145.364 401.242 145.799 401.437 146.188L392.493 150.66ZM398.733 153.78V163.78C404.13 163.78 410.599 161.767 413.917 155.132L404.973 150.66L396.028 146.188C396.223 145.799 396.516 145.364 396.927 144.954C397.337 144.544 397.771 144.25 398.161 144.056C398.9 143.686 399.246 143.78 398.733 143.78V153.78ZM404.973 150.66L413.988 154.987C415.978 150.841 416.533 145.967 416.533 141.3H406.533H396.533C396.533 142.934 396.427 144.163 396.279 145.051C396.206 145.488 396.129 145.807 396.064 146.026C395.999 146.246 395.955 146.338 395.957 146.333L404.973 150.66ZM406.533 141.3H416.533C416.533 139.064 416.49 137.11 416.373 135.593L406.403 136.36L396.432 137.127C396.489 137.863 396.533 139.203 396.533 141.3H406.533ZM406.403 136.36L416.4 136.128L416.27 130.537L406.273 130.77L396.275 131.003L396.405 136.592L406.403 136.36ZM406.273 130.77H416.273C416.273 129.62 416.415 128.9 416.54 128.497C416.655 128.125 416.758 128.01 416.767 127.999L409.133 121.54L401.499 115.081C397.632 119.65 396.273 125.273 396.273 130.77H406.273ZM409.133 121.54L416.623 128.166C416.554 128.243 416.475 128.311 416.403 128.36C416.333 128.406 416.315 128.405 416.385 128.379C416.54 128.321 417.09 128.16 418.233 128.16V118.16V108.16C412.357 108.16 406.14 109.831 401.643 114.914L409.133 121.54ZM418.233 118.16V128.16C418.593 128.16 418.775 128.202 418.828 128.216C418.871 128.228 418.852 128.227 418.816 128.204C418.704 128.132 418.984 128.243 419.428 129.132L428.373 124.66L437.317 120.188C435.595 116.744 433.102 113.605 429.609 111.366C426.086 109.108 422.16 108.16 418.233 108.16V118.16ZM428.373 124.66L419.428 129.132C420.674 131.624 421.623 135.535 421.623 141.43H431.623H441.623C441.623 133.632 440.404 126.362 437.317 120.188L428.373 124.66ZM431.623 141.43H421.623C421.623 150.69 420.29 158.981 417.745 166.392L427.203 169.64L436.66 172.888C440.009 163.139 441.623 152.623 441.623 141.43H431.623ZM427.203 169.64L417.726 166.449C415.437 173.246 411.776 178.496 406.773 182.511L413.033 190.31L419.292 198.109C427.462 191.551 433.249 183.02 436.68 172.831L427.203 169.64ZM413.033 190.31L406.723 182.552C402.403 186.066 396.354 188.24 387.683 188.24V198.24V208.24C399.811 208.24 410.662 205.128 419.342 198.068L413.033 190.31Z" fill="#F5A2D8" mask="url(#path-1-outside-1_66_1102)"/>
<circle cx="100" cy="138" r="1" fill="white"/>
<mask id="path-4-outside-2_66_1102" maskUnits="userSpaceOnUse" x="256.694" y="32.9005" width="147.159" height="179.073" fill="black">
<rect fill="white" x="256.694" y="32.9005" width="147.159" height="179.073"/>
<path d="M305.37 185.549C303.127 185.419 300.864 185.083 298.584 184.542C294.91 183.67 291.434 182.244 288.157 180.262C284.88 178.28 282.104 175.882 279.827 173.067C277.551 170.252 275.965 167.065 275.069 163.507C274.204 159.823 274.315 155.968 275.404 151.944C276.185 148.65 277.555 145.697 279.513 143.083C281.471 140.47 283.782 138.342 286.447 136.699C289.142 134.929 292.16 133.772 295.501 133.226C298.969 132.71 302.603 132.903 306.404 133.805C309.698 134.586 312.823 135.796 315.78 137.434C318.767 138.946 321.392 140.572 323.656 142.313C324.311 138.989 324.91 135.05 325.455 130.496C326.031 125.814 326.524 120.913 326.936 115.792C327.348 110.671 327.697 105.534 327.982 100.383C328.297 95.1047 328.507 90.27 328.612 85.8788C328.874 81.3909 329.048 77.5516 329.136 74.3607C329.224 71.1698 329.261 69.0375 329.248 67.9639C329.296 66.6368 329.563 65.2282 330.05 63.7379C330.664 62.2777 331.517 60.941 332.607 59.7277C333.698 58.5144 334.934 57.5362 336.314 56.7931C337.822 56.0801 339.492 55.8073 341.326 55.9746C344.203 56.2557 347.099 56.7419 350.013 57.4331C361.922 60.2581 370.845 65.5194 376.78 73.217C382.746 80.7879 384.787 90.238 382.902 101.567C382.087 107.262 380.257 112.716 377.415 117.93C374.572 123.144 370.87 127.752 366.307 131.755C364.492 133.198 362.593 134.153 360.609 134.619C358.752 135.115 357.063 135.183 355.543 134.822C353.516 134.341 352.019 133.317 351.052 131.75C350.213 130.212 350.38 128.379 351.554 126.248C354.927 120.491 357.41 114.255 359.003 107.541C359.424 105.767 359.688 104.09 359.795 102.51C360.029 100.959 360.2 99.3937 360.307 97.8133C360.255 93.5187 359.151 89.7106 356.995 86.3889C354.839 83.0672 351.824 80.5454 347.95 78.8235C347.995 82.5813 347.849 87.431 347.51 93.3726C347.328 99.2175 346.947 105.618 346.368 112.573C345.819 119.401 345.034 126.375 344.015 133.493C343.122 140.641 341.939 147.32 340.467 153.527C339.325 158.342 337.971 162.638 336.406 166.415C334.871 170.065 333.091 173.055 331.066 175.385C328.198 178.452 324.581 181.006 320.216 183.049C315.88 184.965 310.932 185.798 305.37 185.549Z"/>
</mask>
<path d="M305.37 185.549C303.127 185.419 300.864 185.083 298.584 184.542C294.91 183.67 291.434 182.244 288.157 180.262C284.88 178.28 282.104 175.882 279.827 173.067C277.551 170.252 275.965 167.065 275.069 163.507C274.204 159.823 274.315 155.968 275.404 151.944C276.185 148.65 277.555 145.697 279.513 143.083C281.471 140.47 283.782 138.342 286.447 136.699C289.142 134.929 292.16 133.772 295.501 133.226C298.969 132.71 302.603 132.903 306.404 133.805C309.698 134.586 312.823 135.796 315.78 137.434C318.767 138.946 321.392 140.572 323.656 142.313C324.311 138.989 324.91 135.05 325.455 130.496C326.031 125.814 326.524 120.913 326.936 115.792C327.348 110.671 327.697 105.534 327.982 100.383C328.297 95.1047 328.507 90.27 328.612 85.8788C328.874 81.3909 329.048 77.5516 329.136 74.3607C329.224 71.1698 329.261 69.0375 329.248 67.9639C329.296 66.6368 329.563 65.2282 330.05 63.7379C330.664 62.2777 331.517 60.941 332.607 59.7277C333.698 58.5144 334.934 57.5362 336.314 56.7931C337.822 56.0801 339.492 55.8073 341.326 55.9746C344.203 56.2557 347.099 56.7419 350.013 57.4331C361.922 60.2581 370.845 65.5194 376.78 73.217C382.746 80.7879 384.787 90.238 382.902 101.567C382.087 107.262 380.257 112.716 377.415 117.93C374.572 123.144 370.87 127.752 366.307 131.755C364.492 133.198 362.593 134.153 360.609 134.619C358.752 135.115 357.063 135.183 355.543 134.822C353.516 134.341 352.019 133.317 351.052 131.75C350.213 130.212 350.38 128.379 351.554 126.248C354.927 120.491 357.41 114.255 359.003 107.541C359.424 105.767 359.688 104.09 359.795 102.51C360.029 100.959 360.2 99.3937 360.307 97.8133C360.255 93.5187 359.151 89.7106 356.995 86.3889C354.839 83.0672 351.824 80.5454 347.95 78.8235C347.995 82.5813 347.849 87.431 347.51 93.3726C347.328 99.2175 346.947 105.618 346.368 112.573C345.819 119.401 345.034 126.375 344.015 133.493C343.122 140.641 341.939 147.32 340.467 153.527C339.325 158.342 337.971 162.638 336.406 166.415C334.871 170.065 333.091 173.055 331.066 175.385C328.198 178.452 324.581 181.006 320.216 183.049C315.88 184.965 310.932 185.798 305.37 185.549Z" fill="white"/>
<path d="M305.37 185.549L304.788 195.532L304.856 195.536L304.924 195.539L305.37 185.549ZM279.827 173.067L272.052 179.355L279.827 173.067ZM275.069 163.507L265.334 165.794L265.353 165.872L265.372 165.949L275.069 163.507ZM275.404 151.944L285.057 154.555L285.097 154.404L285.134 154.252L275.404 151.944ZM286.447 136.699L291.695 145.211L291.817 145.136L291.936 145.058L286.447 136.699ZM295.501 133.226L294.03 123.335L293.96 123.345L293.889 123.357L295.501 133.226ZM315.78 137.434L310.934 146.181L311.098 146.272L311.265 146.357L315.78 137.434ZM323.656 142.313L317.558 150.239L330.349 160.079L333.467 144.246L323.656 142.313ZM325.455 130.496L315.53 129.276L315.528 129.292L315.526 129.307L325.455 130.496ZM327.982 100.383L318 99.7865L317.998 99.8082L317.997 99.8299L327.982 100.383ZM328.612 85.8788L318.629 85.2968L318.619 85.4683L318.615 85.64L328.612 85.8788ZM329.248 67.9639L319.255 67.6088L319.246 67.8466L319.249 68.0846L329.248 67.9639ZM330.05 63.7379L320.832 59.8617L320.673 60.2399L320.545 60.6298L330.05 63.7379ZM336.314 56.7931L332.038 47.7534L331.804 47.8644L331.575 47.9874L336.314 56.7931ZM341.326 55.9746L342.298 46.022L342.267 46.0189L342.235 46.016L341.326 55.9746ZM376.78 73.217L368.861 79.3234L368.893 79.365L368.926 79.4062L376.78 73.217ZM382.902 101.567L373.038 99.9265L373.019 100.038L373.003 100.15L382.902 101.567ZM366.307 131.755L372.532 139.581L372.72 139.431L372.902 139.272L366.307 131.755ZM360.609 134.619L358.322 124.884L358.175 124.919L358.028 124.958L360.609 134.619ZM351.052 131.75L342.276 136.543L342.402 136.774L342.54 136.998L351.052 131.75ZM351.554 126.248L342.926 121.193L342.86 121.306L342.797 121.42L351.554 126.248ZM359.795 102.51L349.907 101.017L349.846 101.423L349.818 101.832L359.795 102.51ZM360.307 97.8133L370.284 98.4904L370.311 98.0919L370.306 97.6926L360.307 97.8133ZM347.95 78.8235L352.012 69.6855L337.762 63.3521L337.951 78.9443L347.95 78.8235ZM347.51 93.3726L337.526 92.8032L337.519 92.9321L337.515 93.0612L347.51 93.3726ZM346.368 112.573L336.402 111.743L336.401 111.757L336.4 111.771L346.368 112.573ZM344.015 133.493L334.116 132.075L334.103 132.164L334.092 132.254L344.015 133.493ZM336.406 166.415L345.624 170.291L345.634 170.267L345.644 170.243L336.406 166.415ZM331.066 175.385L338.369 182.217L338.494 182.083L338.615 181.945L331.066 175.385ZM320.216 183.049L324.257 192.196L324.356 192.152L324.453 192.107L320.216 183.049ZM305.37 185.549L305.952 175.566C304.314 175.471 302.63 175.224 300.892 174.812L298.584 184.542L296.276 194.272C299.099 194.941 301.939 195.366 304.788 195.532L305.37 185.549ZM298.584 184.542L300.892 174.812C298.243 174.183 295.733 173.157 293.332 171.705L288.157 180.262L282.983 188.819C287.136 191.33 291.577 193.157 296.276 194.272L298.584 184.542ZM288.157 180.262L293.332 171.705C290.989 170.288 289.109 168.641 287.603 166.779L279.827 173.067L272.052 179.355C275.098 183.122 278.772 186.272 282.983 188.819L288.157 180.262ZM279.827 173.067L287.603 166.779C286.251 165.107 285.313 163.237 284.767 161.066L275.069 163.507L265.372 165.949C266.617 170.894 268.851 175.397 272.052 179.355L279.827 173.067ZM275.069 163.507L284.804 161.22C284.355 159.309 284.356 157.144 285.057 154.555L275.404 151.944L265.75 149.333C264.274 154.792 264.052 160.336 265.334 165.794L275.069 163.507ZM275.404 151.944L285.134 154.252C285.61 152.243 286.41 150.554 287.516 149.079L279.513 143.083L271.51 137.087C268.699 140.839 266.76 145.057 265.674 149.636L275.404 151.944ZM279.513 143.083L287.516 149.079C288.755 147.426 290.144 146.167 291.695 145.211L286.447 136.699L281.199 128.187C277.42 130.516 274.187 133.513 271.51 137.087L279.513 143.083ZM286.447 136.699L291.936 145.058C293.4 144.096 295.085 143.426 297.113 143.095L295.501 133.226L293.889 123.357C289.235 124.117 284.883 125.762 280.958 128.34L286.447 136.699ZM295.501 133.226L296.972 143.117C299.045 142.809 301.392 142.893 304.096 143.535L306.404 133.805L308.712 124.075C303.814 122.913 298.892 122.612 294.03 123.335L295.501 133.226ZM306.404 133.805L304.096 143.535C306.504 144.106 308.776 144.986 310.934 146.181L315.78 137.434L320.626 128.687C316.871 126.606 312.891 125.066 308.712 124.075L306.404 133.805ZM315.78 137.434L311.265 146.357C313.787 147.633 315.866 148.937 317.558 150.239L323.656 142.313L329.753 134.387C326.919 132.207 323.747 130.258 320.295 128.511L315.78 137.434ZM323.656 142.313L333.467 144.246C334.184 140.607 334.819 136.407 335.385 131.684L325.455 130.496L315.526 129.307C315.001 133.693 314.437 137.372 313.844 140.381L323.656 142.313ZM325.455 130.496L335.381 131.715C335.974 126.883 336.482 121.842 336.904 116.594L326.936 115.792L316.968 114.99C316.567 119.984 316.087 124.746 315.53 129.276L325.455 130.496ZM326.936 115.792L336.904 116.594C337.322 111.389 337.677 106.17 337.966 100.936L327.982 100.383L317.997 99.8299C317.716 104.899 317.373 109.952 316.968 114.99L326.936 115.792ZM327.982 100.383L337.964 100.979C338.285 95.6049 338.501 90.6491 338.609 86.1176L328.612 85.8788L318.615 85.64C318.513 89.891 318.309 94.6044 318 99.7865L327.982 100.383ZM328.612 85.8788L338.595 86.4608C338.86 81.9083 339.041 77.9608 339.132 74.6358L329.136 74.3607L319.14 74.0856C319.056 77.1423 318.887 80.8736 318.629 85.2968L328.612 85.8788ZM329.136 74.3607L339.132 74.6358C339.219 71.4765 339.263 69.1473 339.248 67.8432L329.248 67.9639L319.249 68.0846C319.259 68.9278 319.229 70.863 319.14 74.0856L329.136 74.3607ZM329.248 67.9639L339.242 68.3189C339.251 68.0789 339.308 67.6021 339.555 66.8461L330.05 63.7379L320.545 60.6298C319.818 62.8543 319.34 65.1948 319.255 67.6088L329.248 67.9639ZM330.05 63.7379L339.268 67.6142C339.437 67.2141 339.677 66.8213 340.044 66.4131L332.607 59.7277L325.171 53.0422C323.356 55.0607 321.892 57.3414 320.832 59.8617L330.05 63.7379ZM332.607 59.7277L340.044 66.4131C340.396 66.0215 340.728 65.7738 341.054 65.5988L336.314 56.7931L331.575 47.9874C329.139 49.2985 327 51.0072 325.171 53.0422L332.607 59.7277ZM336.314 56.7931L340.59 65.8328C340.543 65.8552 340.491 65.8755 340.438 65.8919C340.385 65.9083 340.341 65.9178 340.31 65.923C340.242 65.934 340.268 65.9196 340.417 65.9333L341.326 55.9746L342.235 46.016C338.813 45.7037 335.326 46.1985 332.038 47.7534L336.314 56.7931ZM341.326 55.9746L340.354 65.9273C342.766 66.1629 345.215 66.5725 347.705 67.1631L350.013 57.4331L352.321 47.7031C348.983 46.9113 345.641 46.3486 342.298 46.022L341.326 55.9746ZM350.013 57.4331L347.705 67.1631C357.975 69.5992 364.656 73.8699 368.861 79.3234L376.78 73.217L384.699 67.1106C377.033 57.1688 365.87 50.9169 352.321 47.7031L350.013 57.4331ZM376.78 73.217L368.926 79.4062C372.816 84.3438 374.557 90.7946 373.038 99.9265L382.902 101.567L392.767 103.208C395.017 89.6814 392.676 77.2321 384.635 67.0278L376.78 73.217ZM382.902 101.567L373.003 100.15C372.362 104.625 370.925 108.942 368.635 113.143L377.415 117.93L386.195 122.717C389.59 116.49 391.811 109.899 392.801 102.985L382.902 101.567ZM377.415 117.93L368.635 113.143C366.367 117.303 363.411 120.992 359.712 124.238L366.307 131.755L372.902 139.272C378.328 134.512 382.777 128.985 386.195 122.717L377.415 117.93ZM366.307 131.755L360.082 123.929C359.264 124.579 358.683 124.799 358.322 124.884L360.609 134.619L362.896 144.354C366.503 143.507 369.721 141.817 372.532 139.581L366.307 131.755ZM360.609 134.619L358.028 124.958C357.716 125.041 357.564 125.049 357.549 125.05C357.541 125.05 357.655 125.046 357.851 125.092L355.543 134.822L353.235 144.552C356.695 145.373 360.097 145.106 363.19 144.28L360.609 134.619ZM355.543 134.822L357.851 125.092C357.85 125.092 357.923 125.109 358.049 125.163C358.178 125.218 358.351 125.306 358.547 125.441C358.971 125.731 359.325 126.113 359.565 126.502L351.052 131.75L342.54 136.998C345.086 141.127 348.996 143.547 353.235 144.552L355.543 134.822ZM351.052 131.75L359.829 126.956C360.41 128.021 360.594 129.178 360.507 130.13C360.432 130.954 360.188 131.301 360.312 131.076L351.554 126.248L342.797 121.42C340.679 125.263 339.202 130.916 342.276 136.543L351.052 131.75ZM351.554 126.248L360.183 131.304C364.074 124.661 366.919 117.495 368.733 109.849L359.003 107.541L349.273 105.233C347.901 111.015 345.781 116.321 342.926 121.193L351.554 126.248ZM359.003 107.541L368.733 109.849C369.262 107.617 369.623 105.391 369.772 103.187L359.795 102.51L349.818 101.832C349.753 102.789 349.585 103.917 349.273 105.233L359.003 107.541ZM359.795 102.51L369.683 104.002C369.958 102.178 370.158 100.341 370.284 98.4904L360.307 97.8133L350.33 97.1363C350.241 98.4467 350.1 99.7402 349.907 101.017L359.795 102.51ZM360.307 97.8133L370.306 97.6926C370.234 91.673 368.656 85.9865 365.383 80.9443L356.995 86.3889L348.607 91.8335C349.646 93.4347 350.277 95.3645 350.308 97.934L360.307 97.8133ZM356.995 86.3889L365.383 80.9443C362.097 75.8828 357.524 72.1358 352.012 69.6855L347.95 78.8235L343.888 87.9615C346.124 88.955 347.58 90.2515 348.607 91.8335L356.995 86.3889ZM347.95 78.8235L337.951 78.9443C337.992 82.3796 337.858 86.9758 337.526 92.8032L347.51 93.3726L357.494 93.9419C357.839 87.8862 357.999 82.783 357.949 78.7028L347.95 78.8235ZM347.51 93.3726L337.515 93.0612C337.339 98.7038 336.97 104.928 336.402 111.743L346.368 112.573L356.333 113.403C356.924 106.307 357.317 99.7312 357.505 93.684L347.51 93.3726ZM346.368 112.573L336.4 111.771C335.868 118.384 335.107 125.151 334.116 132.075L344.015 133.493L353.914 134.911C354.961 127.598 355.769 120.419 356.336 113.374L346.368 112.573ZM344.015 133.493L334.092 132.254C333.238 139.088 332.116 145.405 330.737 151.219L340.467 153.527L350.197 155.836C351.763 149.234 353.006 142.195 353.938 134.732L344.015 133.493ZM340.467 153.527L330.737 151.219C329.693 155.619 328.492 159.392 327.168 162.587L336.406 166.415L345.644 170.243C347.451 165.883 348.956 161.065 350.197 155.836L340.467 153.527ZM336.406 166.415L327.188 162.538C325.954 165.474 324.683 167.486 323.518 168.826L331.066 175.385L338.615 181.945C341.499 178.625 343.788 174.657 345.624 170.291L336.406 166.415ZM331.066 175.385L323.764 168.554C321.884 170.563 319.358 172.41 315.978 173.991L320.216 183.049L324.453 192.107C329.804 189.603 334.511 186.341 338.369 182.217L331.066 175.385ZM320.216 183.049L316.174 173.902C313.476 175.094 310.105 175.751 305.817 175.559L305.37 185.549L304.924 195.539C311.759 195.845 318.285 194.835 324.257 192.196L320.216 183.049Z" fill="#F5A2D8" mask="url(#path-4-outside-2_66_1102)"/>
<circle cx="290" cy="168" r="4" fill="#F5A2D8"/>
<path d="M285.281 158.117C284.611 153.911 285.281 145.745 295.009 142.745" stroke="#F5A2D8" stroke-width="7" stroke-linecap="round"/>
<path d="M147 135C150.478 135 153 137.622 153 140.5C153 143.378 150.478 146 147 146C143.522 146 141 143.378 141 140.5C141 137.622 143.522 135 147 135Z" fill="#F9F9F9" stroke="#F5A2D8" stroke-width="6"/>
<circle cx="249.5" cy="151.5" r="6.5" fill="#F9F9F9" stroke="#F5A2D8" stroke-width="6"/>
</svg>
