<svg width="29" height="25" viewBox="0 0 29 25" fill="none" xmlns="http://www.w3.org/2000/svg">
<path d="M22.9051 24L27.667 8.16663H1.00034L6.39716 24H22.9051Z" fill="#FFD5F0" stroke="#343434" stroke-width="1.5" stroke-linecap="round" stroke-linejoin="round"/>
<mask id="path-2-inside-1_112_9756" fill="white">
<path d="M22 9C22 7.8181 21.806 6.64778 21.4291 5.55585C21.0522 4.46392 20.4997 3.47177 19.8033 2.63604C19.1069 1.80031 18.2801 1.13738 17.3701 0.685084C16.4602 0.232792 15.4849 -5.16623e-08 14.5 0C13.5151 5.16624e-08 12.5398 0.232792 11.6299 0.685084C10.7199 1.13738 9.89314 1.80031 9.1967 2.63604C8.50026 3.47177 7.94781 4.46392 7.5709 5.55585C7.19399 6.64778 7 7.8181 7 9L14.5 9H22Z"/>
</mask>
<path d="M22 9C22 7.8181 21.806 6.64778 21.4291 5.55585C21.0522 4.46392 20.4997 3.47177 19.8033 2.63604C19.1069 1.80031 18.2801 1.13738 17.3701 0.685084C16.4602 0.232792 15.4849 -5.16623e-08 14.5 0C13.5151 5.16624e-08 12.5398 0.232792 11.6299 0.685084C10.7199 1.13738 9.89314 1.80031 9.1967 2.63604C8.50026 3.47177 7.94781 4.46392 7.5709 5.55585C7.19399 6.64778 7 7.8181 7 9L14.5 9H22Z" stroke="#343434" stroke-width="3" mask="url(#path-2-inside-1_112_9756)"/>
<path d="M7.66699 8.16663L7.66699 13.1666" stroke="#343434" stroke-width="1.7" stroke-linecap="round" stroke-linejoin="round"/>
<path d="M21.0003 8.16663V13.1666" stroke="#343434" stroke-width="1.7" stroke-linecap="round" stroke-linejoin="round"/>
</svg>
