<svg width="12" height="15" viewBox="0 0 12 15" fill="none" xmlns="http://www.w3.org/2000/svg">
<path d="M3.77823 14.181C3.55376 14.1928 3.32522 14.1844 3.09259 14.1558C2.7178 14.1098 2.35661 14.0064 2.00903 13.8457C1.66145 13.6849 1.35898 13.4773 1.10163 13.2226C0.844286 12.968 0.651443 12.6689 0.523105 12.3251C0.396354 11.9685 0.36483 11.5842 0.428532 11.1722C0.46979 10.8362 0.573287 10.5275 0.739022 10.2461C0.904757 9.96473 1.11096 9.72767 1.35765 9.53494C1.60591 9.32929 1.89307 9.18089 2.21911 9.08974C2.55807 9.00017 2.92141 8.97919 3.30912 9.02679C3.64514 9.06805 3.96914 9.15375 4.28113 9.28389C4.5947 9.4011 4.87358 9.53373 5.11778 9.68178C5.14611 9.34418 5.1622 8.94604 5.16605 8.48736C5.17148 8.01575 5.16636 7.52318 5.15071 7.00963C5.13505 6.49608 5.11293 5.98174 5.08435 5.4666C5.05736 4.93854 5.02482 4.45572 4.98671 4.01813C4.96312 3.5692 4.93806 3.18568 4.91153 2.86757C4.88499 2.54947 4.86515 2.33714 4.852 2.23057C4.84202 2.09816 4.85301 1.9552 4.88498 1.80171C4.92987 1.64979 4.99981 1.50752 5.09481 1.37488C5.18981 1.24224 5.30181 1.13136 5.43082 1.04225C5.57275 0.954732 5.73577 0.909156 5.91988 0.905524C6.20896 0.901663 6.50212 0.917981 6.79937 0.954479C8.01421 1.10364 8.95912 1.52795 9.63412 2.2274C10.3107 2.91394 10.6179 3.83061 10.5558 4.97742C10.5377 5.55241 10.4162 6.11471 10.1913 6.66432C9.96639 7.21392 9.64932 7.71285 9.24008 8.16111C9.0757 8.32459 8.89749 8.44045 8.70545 8.5087C8.52633 8.57854 8.35923 8.60394 8.20415 8.5849C7.99737 8.55951 7.83729 8.47426 7.72392 8.32915C7.62348 8.18563 7.61985 8.00153 7.71303 7.77683C7.98464 7.16737 8.1625 6.52016 8.2466 5.8352C8.26881 5.65427 8.27652 5.48467 8.26971 5.32641C8.27583 5.16974 8.27549 5.01227 8.26868 4.85402C8.21607 4.42776 8.06427 4.06148 7.81327 3.75517C7.56227 3.44886 7.23475 3.23154 6.83071 3.10322C6.87674 3.47619 6.91575 3.95981 6.94773 4.55408C6.99423 5.13701 7.02712 5.7773 7.04641 6.47495C7.06728 7.15968 7.06639 7.86142 7.04373 8.58016C7.034 9.30049 6.99025 9.97729 6.9125 10.6106C6.8522 11.1017 6.76514 11.5436 6.65133 11.9363C6.53911 12.316 6.39525 12.6329 6.21977 12.8868C5.96856 13.2233 5.63731 13.5172 5.22602 13.7684C4.81632 14.0067 4.33372 14.1442 3.77823 14.181Z" fill="#7A7A7A"/>
</svg>
